<svg xmlns="http://www.w3.org/2000/svg" xmlns:rdkit="http://www.rdkit.org/xml" xmlns:xlink="http://www.w3.org/1999/xlink" version="1.1" baseProfile="full" xml:space="preserve" width="750px" height="750px" viewBox="0 0 750 750">
<!-- END OF HEADER -->
<rect style="opacity:1.0;fill:#FFFFFF;stroke:none" width="750" height="750" x="0" y="0"> </rect>
<rect style="opacity:1.0;fill:#FFFFFF;stroke:none" width="750" height="750" x="0" y="0"> </rect>
<rect style="opacity:1.0;fill:#FFFFFF;stroke:none" width="750" height="750" x="0" y="0"> </rect>
<rect style="opacity:1.0;fill:#FFFFFF;stroke:none" width="750" height="750" x="0" y="0"> </rect>
<rect style="opacity:1.0;fill:#FFFFFF;stroke:none" width="750" height="750" x="0" y="0"> </rect>
<rect style="opacity:1.0;fill:#FFFFFF;stroke:none" width="750" height="750" x="0" y="0"> </rect>
<rect style="opacity:1.0;fill:#FFFFFF;stroke:none" width="750" height="750" x="0" y="0"> </rect>
<rect style="opacity:1.0;fill:#FFFFFF;stroke:none" width="750" height="750" x="0" y="0"> </rect>
<rect style="opacity:1.0;fill:#FFFFFF;stroke:none" width="750" height="750" x="0" y="0"> </rect>
<rect style="opacity:1.0;fill:#FFFFFF;stroke:none" width="750" height="750" x="0" y="0"> </rect>
<path class="bond-0 atom-0 atom-1" d="M 110.4,130.982 L 116.315,127.567" style="fill:none;fill-rule:evenodd;stroke:#000000;stroke-width:2.0px;stroke-linecap:butt;stroke-linejoin:miter;stroke-opacity:1"/>
<path class="bond-0 atom-0 atom-1" d="M 116.315,127.567 L 122.231,124.151" style="fill:none;fill-rule:evenodd;stroke:#0000FF;stroke-width:2.0px;stroke-linecap:butt;stroke-linejoin:miter;stroke-opacity:1"/>
<path class="bond-1 atom-1 atom-2" d="M 126.501,124.151 L 132.416,127.567" style="fill:none;fill-rule:evenodd;stroke:#0000FF;stroke-width:2.0px;stroke-linecap:butt;stroke-linejoin:miter;stroke-opacity:1"/>
<path class="bond-1 atom-1 atom-2" d="M 132.416,127.567 L 138.332,130.982" style="fill:none;fill-rule:evenodd;stroke:#000000;stroke-width:2.0px;stroke-linecap:butt;stroke-linejoin:miter;stroke-opacity:1"/>
<path class="atom-1" d="M 123.356 120.635 L 124.853 123.054 Q 125.001 123.293, 125.24 123.725 Q 125.479 124.157, 125.491 124.183 L 125.491 120.635 L 126.098 120.635 L 126.098 125.202 L 125.472 125.202 L 123.866 122.558 Q 123.679 122.248, 123.479 121.893 Q 123.285 121.538, 123.227 121.429 L 123.227 125.202 L 122.634 125.202 L 122.634 120.635 L 123.356 120.635 " fill="#0000FF"/>
<path class="atom-1" d="M 122.579 115.612 L 123.198 115.612 L 123.198 117.553 L 125.533 117.553 L 125.533 115.612 L 126.153 115.612 L 126.153 120.179 L 125.533 120.179 L 125.533 118.069 L 123.198 118.069 L 123.198 120.179 L 122.579 120.179 L 122.579 115.612 " fill="#0000FF"/>
<path class="bond-0 atom-0 atom-1" d="M 322.783,158.035 L 328.553,156.805" style="fill:none;fill-rule:evenodd;stroke:#FF7F00;stroke-width:2.0px;stroke-linecap:butt;stroke-linejoin:miter;stroke-opacity:1"/>
<path class="bond-0 atom-0 atom-1" d="M 328.553,156.805 L 334.323,155.574" style="fill:none;fill-rule:evenodd;stroke:#000000;stroke-width:2.0px;stroke-linecap:butt;stroke-linejoin:miter;stroke-opacity:1"/>
<path class="bond-1 atom-1 atom-2" d="M 334.323,155.574 L 336.359,149.296" style="fill:none;fill-rule:evenodd;stroke:#000000;stroke-width:2.0px;stroke-linecap:butt;stroke-linejoin:miter;stroke-opacity:1"/>
<path class="bond-1 atom-1 atom-2" d="M 336.359,149.296 L 338.394,143.018" style="fill:none;fill-rule:evenodd;stroke:#FF0000;stroke-width:2.0px;stroke-linecap:butt;stroke-linejoin:miter;stroke-opacity:1"/>
<path class="bond-2 atom-2 atom-3" d="M 341.796,139.701 L 348.432,138.286" style="fill:none;fill-rule:evenodd;stroke:#FF0000;stroke-width:2.0px;stroke-linecap:butt;stroke-linejoin:miter;stroke-opacity:1"/>
<path class="bond-2 atom-2 atom-3" d="M 348.432,138.286 L 355.068,136.871" style="fill:none;fill-rule:evenodd;stroke:#000000;stroke-width:2.0px;stroke-linecap:butt;stroke-linejoin:miter;stroke-opacity:1"/>
<path class="bond-3 atom-3 atom-4" d="M 355.068,136.871 L 360.042,121.531" style="fill:none;fill-rule:evenodd;stroke:#000000;stroke-width:2.0px;stroke-linecap:butt;stroke-linejoin:miter;stroke-opacity:1"/>
<path class="bond-4 atom-4 atom-5" d="M 360.042,121.531 L 349.244,109.554" style="fill:none;fill-rule:evenodd;stroke:#000000;stroke-width:2.0px;stroke-linecap:butt;stroke-linejoin:miter;stroke-opacity:1"/>
<path class="bond-4 atom-4 atom-5" d="M 360.818,117.575 L 353.259,109.191" style="fill:none;fill-rule:evenodd;stroke:#000000;stroke-width:2.0px;stroke-linecap:butt;stroke-linejoin:miter;stroke-opacity:1"/>
<path class="bond-15 atom-9 atom-4" d="M 375.814,118.168 L 360.042,121.531" style="fill:none;fill-rule:evenodd;stroke:#000000;stroke-width:2.0px;stroke-linecap:butt;stroke-linejoin:miter;stroke-opacity:1"/>
<path class="bond-5 atom-5 atom-6" d="M 349.244,109.554 L 354.217,94.2134" style="fill:none;fill-rule:evenodd;stroke:#000000;stroke-width:2.0px;stroke-linecap:butt;stroke-linejoin:miter;stroke-opacity:1"/>
<path class="bond-6 atom-6 atom-7" d="M 354.217,94.2134 L 369.989,90.8505" style="fill:none;fill-rule:evenodd;stroke:#000000;stroke-width:2.0px;stroke-linecap:butt;stroke-linejoin:miter;stroke-opacity:1"/>
<path class="bond-6 atom-6 atom-7" d="M 357.256,96.8634 L 368.296,94.5093" style="fill:none;fill-rule:evenodd;stroke:#000000;stroke-width:2.0px;stroke-linecap:butt;stroke-linejoin:miter;stroke-opacity:1"/>
<path class="bond-7 atom-7 atom-8" d="M 369.989,90.8505 L 380.787,102.828" style="fill:none;fill-rule:evenodd;stroke:#000000;stroke-width:2.0px;stroke-linecap:butt;stroke-linejoin:miter;stroke-opacity:1"/>
<path class="bond-8 atom-8 atom-9" d="M 380.787,102.828 L 375.814,118.168" style="fill:none;fill-rule:evenodd;stroke:#000000;stroke-width:2.0px;stroke-linecap:butt;stroke-linejoin:miter;stroke-opacity:1"/>
<path class="bond-8 atom-8 atom-9" d="M 376.973,104.134 L 373.492,114.872" style="fill:none;fill-rule:evenodd;stroke:#000000;stroke-width:2.0px;stroke-linecap:butt;stroke-linejoin:miter;stroke-opacity:1"/>
<path class="bond-9 atom-9 atom-10" d="M 375.814,118.168 L 386.612,130.145" style="fill:none;fill-rule:evenodd;stroke:#000000;stroke-width:2.0px;stroke-linecap:butt;stroke-linejoin:miter;stroke-opacity:1"/>
<path class="bond-10 atom-10 atom-11" d="M 385.078,129.648 L 383.031,135.962" style="fill:none;fill-rule:evenodd;stroke:#000000;stroke-width:2.0px;stroke-linecap:butt;stroke-linejoin:miter;stroke-opacity:1"/>
<path class="bond-10 atom-10 atom-11" d="M 383.031,135.962 L 380.984,142.276" style="fill:none;fill-rule:evenodd;stroke:#FF0000;stroke-width:2.0px;stroke-linecap:butt;stroke-linejoin:miter;stroke-opacity:1"/>
<path class="bond-10 atom-10 atom-11" d="M 388.146,130.643 L 386.099,136.957" style="fill:none;fill-rule:evenodd;stroke:#000000;stroke-width:2.0px;stroke-linecap:butt;stroke-linejoin:miter;stroke-opacity:1"/>
<path class="bond-10 atom-10 atom-11" d="M 386.099,136.957 L 384.052,143.271" style="fill:none;fill-rule:evenodd;stroke:#FF0000;stroke-width:2.0px;stroke-linecap:butt;stroke-linejoin:miter;stroke-opacity:1"/>
<path class="bond-11 atom-10 atom-12" d="M 386.612,130.145 L 393.43,128.692" style="fill:none;fill-rule:evenodd;stroke:#000000;stroke-width:2.0px;stroke-linecap:butt;stroke-linejoin:miter;stroke-opacity:1"/>
<path class="bond-11 atom-10 atom-12" d="M 393.43,128.692 L 400.249,127.238" style="fill:none;fill-rule:evenodd;stroke:#0000FF;stroke-width:2.0px;stroke-linecap:butt;stroke-linejoin:miter;stroke-opacity:1"/>
<path class="bond-12 atom-12 atom-13" d="M 404.519,129.151 L 408.85,133.955" style="fill:none;fill-rule:evenodd;stroke:#0000FF;stroke-width:2.0px;stroke-linecap:butt;stroke-linejoin:miter;stroke-opacity:1"/>
<path class="bond-12 atom-12 atom-13" d="M 408.85,133.955 L 413.182,138.76" style="fill:none;fill-rule:evenodd;stroke:#000000;stroke-width:2.0px;stroke-linecap:butt;stroke-linejoin:miter;stroke-opacity:1"/>
<path class="bond-13 atom-13 atom-14" d="M 413.182,138.76 L 428.954,135.397" style="fill:none;fill-rule:evenodd;stroke:#000000;stroke-width:2.0px;stroke-linecap:butt;stroke-linejoin:miter;stroke-opacity:1"/>
<path class="bond-14 atom-14 atom-15" d="M 428.954,135.397 L 439.752,147.374" style="fill:none;fill-rule:evenodd;stroke:#000000;stroke-width:2.0px;stroke-linecap:butt;stroke-linejoin:miter;stroke-opacity:1"/>
<path class="atom-0" d="M 318.441 156.654 Q 319.222 156.654, 319.615 157.009 Q 320.009 157.357, 320.009 157.996 Q 320.009 158.628, 319.603 158.989 Q 319.203 159.344, 318.441 159.344 L 317.713 159.344 L 317.713 161.221 L 317.093 161.221 L 317.093 156.654 L 318.441 156.654 M 318.441 158.828 Q 318.887 158.828, 319.125 158.615 Q 319.364 158.402, 319.364 157.996 Q 319.364 157.589, 319.125 157.383 Q 318.893 157.17, 318.441 157.17 L 317.713 157.17 L 317.713 158.828 L 318.441 158.828 " fill="#FF7F00"/>
<path class="atom-0" d="M 320.392 157.477 L 321.197 157.477 L 321.197 156.63 L 321.554 156.63 L 321.554 157.477 L 322.38 157.477 L 322.38 157.784 L 321.554 157.784 L 321.554 158.635 L 321.197 158.635 L 321.197 157.784 L 320.392 157.784 L 320.392 157.477 " fill="#FF7F00"/>
<path class="atom-2" d="M 337.2 140.247 Q 337.2 139.15, 337.742 138.538 Q 338.284 137.925, 339.297 137.925 Q 340.309 137.925, 340.851 138.538 Q 341.393 139.15, 341.393 140.247 Q 341.393 141.357, 340.845 141.989 Q 340.296 142.614, 339.297 142.614 Q 338.29 142.614, 337.742 141.989 Q 337.2 141.363, 337.2 140.247 M 339.297 142.098 Q 339.993 142.098, 340.367 141.634 Q 340.748 141.163, 340.748 140.247 Q 340.748 139.35, 340.367 138.899 Q 339.993 138.441, 339.297 138.441 Q 338.6 138.441, 338.219 138.892 Q 337.845 139.344, 337.845 140.247 Q 337.845 141.169, 338.219 141.634 Q 338.6 142.098, 339.297 142.098 " fill="#FF0000"/>
<path class="atom-11" d="M 379.542 145.499 Q 379.542 144.402, 380.084 143.789 Q 380.626 143.176, 381.638 143.176 Q 382.651 143.176, 383.193 143.789 Q 383.735 144.402, 383.735 145.499 Q 383.735 146.608, 383.187 147.24 Q 382.638 147.866, 381.638 147.866 Q 380.632 147.866, 380.084 147.24 Q 379.542 146.615, 379.542 145.499 M 381.638 147.35 Q 382.335 147.35, 382.709 146.886 Q 383.09 146.415, 383.09 145.499 Q 383.09 144.602, 382.709 144.15 Q 382.335 143.692, 381.638 143.692 Q 380.942 143.692, 380.561 144.144 Q 380.187 144.596, 380.187 145.499 Q 380.187 146.421, 380.561 146.886 Q 380.942 147.35, 381.638 147.35 " fill="#FF0000"/>
<path class="atom-12" d="M 401.374 124.499 L 402.871 126.918 Q 403.019 127.157, 403.258 127.589 Q 403.497 128.021, 403.509 128.047 L 403.509 124.499 L 404.116 124.499 L 404.116 129.066 L 403.49 129.066 L 401.884 126.421 Q 401.697 126.112, 401.497 125.757 Q 401.303 125.402, 401.245 125.293 L 401.245 129.066 L 400.652 129.066 L 400.652 124.499 L 401.374 124.499 " fill="#0000FF"/>
<path class="atom-12" d="M 400.597 119.475 L 401.216 119.475 L 401.216 121.417 L 403.551 121.417 L 403.551 119.475 L 404.171 119.475 L 404.171 124.042 L 403.551 124.042 L 403.551 121.933 L 401.216 121.933 L 401.216 124.042 L 400.597 124.042 L 400.597 119.475 " fill="#0000FF"/>
<path d="M 316.448,158.937 L 316.447,158.91 L 316.443,158.882 L 316.438,158.855 L 316.429,158.828 L 316.419,158.803 L 316.406,158.778 L 316.391,158.755 L 316.375,158.732 L 316.356,158.712 L 316.336,158.693 L 316.314,158.676 L 316.291,158.66 L 316.267,158.647 L 316.241,158.636 L 316.215,158.627 L 316.188,158.621 L 316.16,158.617 L 316.133,158.615 L 316.105,158.615 L 316.077,158.618 L 316.05,158.624 L 316.023,158.631 L 315.998,158.641 L 315.973,158.653 L 315.949,158.668 L 315.926,158.684 L 315.905,158.702 L 315.886,158.722 L 315.868,158.743 L 315.852,158.766 L 315.839,158.79 L 315.827,158.815 L 315.818,158.842 L 315.811,158.868 L 315.806,158.896 L 315.804,158.923 L 315.804,158.951 L 315.806,158.979 L 315.811,159.006 L 315.818,159.033 L 315.827,159.059 L 315.839,159.084 L 315.852,159.108 L 315.868,159.131 L 315.886,159.153 L 315.905,159.173 L 315.926,159.191 L 315.949,159.207 L 315.973,159.221 L 315.998,159.233 L 316.023,159.243 L 316.05,159.251 L 316.077,159.256 L 316.105,159.259 L 316.133,159.26 L 316.16,159.258 L 316.188,159.254 L 316.215,159.247 L 316.241,159.238 L 316.267,159.227 L 316.291,159.214 L 316.314,159.199 L 316.336,159.182 L 316.356,159.163 L 316.375,159.142 L 316.391,159.12 L 316.406,159.097 L 316.419,159.072 L 316.429,159.046 L 316.438,159.02 L 316.443,158.993 L 316.447,158.965 L 316.448,158.937 L 316.126,158.937 Z" style="fill:#000000;fill-rule:evenodd;fill-opacity:1;stroke:#000000;stroke-width:0.0px;stroke-linecap:butt;stroke-linejoin:miter;stroke-opacity:1;"/>
<path d="M 316.448,160.227 L 316.447,160.2 L 316.443,160.172 L 316.438,160.145 L 316.429,160.119 L 316.419,160.093 L 316.406,160.068 L 316.391,160.045 L 316.375,160.022 L 316.356,160.002 L 316.336,159.983 L 316.314,159.966 L 316.291,159.95 L 316.267,159.937 L 316.241,159.926 L 316.215,159.917 L 316.188,159.911 L 316.16,159.907 L 316.133,159.905 L 316.105,159.906 L 316.077,159.909 L 316.05,159.914 L 316.023,159.922 L 315.998,159.931 L 315.973,159.944 L 315.949,159.958 L 315.926,159.974 L 315.905,159.992 L 315.886,160.012 L 315.868,160.033 L 315.852,160.056 L 315.839,160.08 L 315.827,160.106 L 315.818,160.132 L 315.811,160.159 L 315.806,160.186 L 315.804,160.214 L 315.804,160.241 L 315.806,160.269 L 315.811,160.296 L 315.818,160.323 L 315.827,160.349 L 315.839,160.374 L 315.852,160.399 L 315.868,160.421 L 315.886,160.443 L 315.905,160.463 L 315.926,160.481 L 315.949,160.497 L 315.973,160.511 L 315.998,160.523 L 316.023,160.533 L 316.05,160.541 L 316.077,160.546 L 316.105,160.549 L 316.133,160.55 L 316.16,160.548 L 316.188,160.544 L 316.215,160.537 L 316.241,160.529 L 316.267,160.518 L 316.291,160.504 L 316.314,160.489 L 316.336,160.472 L 316.356,160.453 L 316.375,160.432 L 316.391,160.41 L 316.406,160.387 L 316.419,160.362 L 316.429,160.336 L 316.438,160.31 L 316.443,160.283 L 316.447,160.255 L 316.448,160.227 L 316.126,160.227 Z" style="fill:#000000;fill-rule:evenodd;fill-opacity:1;stroke:#000000;stroke-width:0.0px;stroke-linecap:butt;stroke-linejoin:miter;stroke-opacity:1;"/>
<path d="M 316.448,157.647 L 316.447,157.619 L 316.443,157.592 L 316.438,157.565 L 316.429,157.538 L 316.419,157.513 L 316.406,157.488 L 316.391,157.464 L 316.375,157.442 L 316.356,157.422 L 316.336,157.403 L 316.314,157.385 L 316.291,157.37 L 316.267,157.357 L 316.241,157.346 L 316.215,157.337 L 316.188,157.331 L 316.16,157.327 L 316.133,157.325 L 316.105,157.325 L 316.077,157.328 L 316.05,157.334 L 316.023,157.341 L 315.998,157.351 L 315.973,157.363 L 315.949,157.378 L 315.926,157.394 L 315.905,157.412 L 315.886,157.432 L 315.868,157.453 L 315.852,157.476 L 315.839,157.5 L 315.827,157.525 L 315.818,157.551 L 315.811,157.578 L 315.806,157.606 L 315.804,157.633 L 315.804,157.661 L 315.806,157.689 L 315.811,157.716 L 315.818,157.743 L 315.827,157.769 L 315.839,157.794 L 315.852,157.818 L 315.868,157.841 L 315.886,157.863 L 315.905,157.882 L 315.926,157.901 L 315.949,157.917 L 315.973,157.931 L 315.998,157.943 L 316.023,157.953 L 316.05,157.961 L 316.077,157.966 L 316.105,157.969 L 316.133,157.97 L 316.16,157.968 L 316.188,157.964 L 316.215,157.957 L 316.241,157.948 L 316.267,157.937 L 316.291,157.924 L 316.314,157.909 L 316.336,157.892 L 316.356,157.873 L 316.375,157.852 L 316.391,157.83 L 316.406,157.806 L 316.419,157.782 L 316.429,157.756 L 316.438,157.73 L 316.443,157.702 L 316.447,157.675 L 316.448,157.647 L 316.126,157.647 Z" style="fill:#000000;fill-rule:evenodd;fill-opacity:1;stroke:#000000;stroke-width:0.0px;stroke-linecap:butt;stroke-linejoin:miter;stroke-opacity:1;"/>
<path d="M 316.448,158.937 L 316.447,158.91 L 316.443,158.882 L 316.438,158.855 L 316.429,158.828 L 316.419,158.803 L 316.406,158.778 L 316.391,158.755 L 316.375,158.732 L 316.356,158.712 L 316.336,158.693 L 316.314,158.676 L 316.291,158.66 L 316.267,158.647 L 316.241,158.636 L 316.215,158.627 L 316.188,158.621 L 316.16,158.617 L 316.133,158.615 L 316.105,158.615 L 316.077,158.618 L 316.05,158.624 L 316.023,158.631 L 315.998,158.641 L 315.973,158.653 L 315.949,158.668 L 315.926,158.684 L 315.905,158.702 L 315.886,158.722 L 315.868,158.743 L 315.852,158.766 L 315.839,158.79 L 315.827,158.815 L 315.818,158.842 L 315.811,158.868 L 315.806,158.896 L 315.804,158.923 L 315.804,158.951 L 315.806,158.979 L 315.811,159.006 L 315.818,159.033 L 315.827,159.059 L 315.839,159.084 L 315.852,159.108 L 315.868,159.131 L 315.886,159.153 L 315.905,159.173 L 315.926,159.191 L 315.949,159.207 L 315.973,159.221 L 315.998,159.233 L 316.023,159.243 L 316.05,159.251 L 316.077,159.256 L 316.105,159.259 L 316.133,159.26 L 316.16,159.258 L 316.188,159.254 L 316.215,159.247 L 316.241,159.238 L 316.267,159.227 L 316.291,159.214 L 316.314,159.199 L 316.336,159.182 L 316.356,159.163 L 316.375,159.142 L 316.391,159.12 L 316.406,159.097 L 316.419,159.072 L 316.429,159.046 L 316.438,159.02 L 316.443,158.993 L 316.447,158.965 L 316.448,158.937 L 316.126,158.937 Z" style="fill:#000000;fill-rule:evenodd;fill-opacity:1;stroke:#000000;stroke-width:0.0px;stroke-linecap:butt;stroke-linejoin:miter;stroke-opacity:1;"/>
<path class="bond-0 atom-0 atom-1" d="M 618.164,128.294 L 624.238,128.294" style="fill:none;fill-rule:evenodd;stroke:#FF7F00;stroke-width:2.0px;stroke-linecap:butt;stroke-linejoin:miter;stroke-opacity:1"/>
<path class="bond-0 atom-0 atom-1" d="M 624.238,128.294 L 630.311,128.294" style="fill:none;fill-rule:evenodd;stroke:#00CC00;stroke-width:2.0px;stroke-linecap:butt;stroke-linejoin:miter;stroke-opacity:1"/>
<path class="atom-0" d="M 610.723 126.011 L 611.342 126.011 L 611.342 127.952 L 613.677 127.952 L 613.677 126.011 L 614.297 126.011 L 614.297 130.578 L 613.677 130.578 L 613.677 128.468 L 611.342 128.468 L 611.342 130.578 L 610.723 130.578 L 610.723 126.011 " fill="#FF7F00"/>
<path class="atom-0" d="M 616.193 126.011 Q 616.974 126.011, 617.367 126.365 Q 617.761 126.714, 617.761 127.352 Q 617.761 127.985, 617.354 128.346 Q 616.954 128.701, 616.193 128.701 L 615.464 128.701 L 615.464 130.578 L 614.845 130.578 L 614.845 126.011 L 616.193 126.011 M 616.193 128.185 Q 616.638 128.185, 616.877 127.972 Q 617.115 127.759, 617.115 127.352 Q 617.115 126.946, 616.877 126.74 Q 616.645 126.527, 616.193 126.527 L 615.464 126.527 L 615.464 128.185 L 616.193 128.185 " fill="#FF7F00"/>
<path class="atom-1" d="M 630.668 128.452 Q 630.668 127.317, 631.197 126.723 Q 631.732 126.124, 632.745 126.124 Q 633.687 126.124, 634.19 126.788 L 633.764 127.136 Q 633.397 126.653, 632.745 126.653 Q 632.055 126.653, 631.687 127.117 Q 631.326 127.575, 631.326 128.452 Q 631.326 129.355, 631.7 129.82 Q 632.081 130.284, 632.816 130.284 Q 633.319 130.284, 633.906 129.981 L 634.087 130.465 Q 633.848 130.62, 633.487 130.71 Q 633.126 130.8, 632.726 130.8 Q 631.732 130.8, 631.197 130.194 Q 630.668 129.588, 630.668 128.452 " fill="#00CC00"/>
<path class="atom-1" d="M 634.745 125.846 L 635.338 125.846 L 635.338 130.742 L 634.745 130.742 L 634.745 125.846 " fill="#00CC00"/>
<path d="M 610.078,128.294 L 610.077,128.266 L 610.073,128.239 L 610.067,128.212 L 610.059,128.185 L 610.049,128.16 L 610.036,128.135 L 610.021,128.111 L 610.004,128.089 L 609.986,128.069 L 609.966,128.05 L 609.944,128.032 L 609.921,128.017 L 609.896,128.004 L 609.871,127.993 L 609.844,127.984 L 609.817,127.978 L 609.79,127.974 L 609.762,127.972 L 609.735,127.972 L 609.707,127.975 L 609.68,127.981 L 609.653,127.988 L 609.627,127.998 L 609.602,128.01 L 609.578,128.025 L 609.556,128.041 L 609.535,128.059 L 609.515,128.079 L 609.498,128.1 L 609.482,128.123 L 609.468,128.147 L 609.457,128.172 L 609.447,128.198 L 609.44,128.225 L 609.436,128.253 L 609.433,128.28 L 609.433,128.308 L 609.436,128.336 L 609.44,128.363 L 609.447,128.39 L 609.457,128.416 L 609.468,128.441 L 609.482,128.465 L 609.498,128.488 L 609.515,128.51 L 609.535,128.529 L 609.556,128.548 L 609.578,128.564 L 609.602,128.578 L 609.627,128.59 L 609.653,128.6 L 609.68,128.608 L 609.707,128.613 L 609.735,128.616 L 609.762,128.617 L 609.79,128.615 L 609.817,128.611 L 609.844,128.604 L 609.871,128.595 L 609.896,128.584 L 609.921,128.571 L 609.944,128.556 L 609.966,128.539 L 609.986,128.52 L 610.004,128.499 L 610.021,128.477 L 610.036,128.453 L 610.049,128.429 L 610.059,128.403 L 610.067,128.377 L 610.073,128.349 L 610.077,128.322 L 610.078,128.294 L 609.755,128.294 Z" style="fill:#000000;fill-rule:evenodd;fill-opacity:1;stroke:#000000;stroke-width:0.0px;stroke-linecap:butt;stroke-linejoin:miter;stroke-opacity:1;"/>
<path class="bond-0 atom-0 atom-1" d="M 136.382,365.108 L 135.431,371.747" style="fill:none;fill-rule:evenodd;stroke:#0000FF;stroke-width:2.0px;stroke-linecap:butt;stroke-linejoin:miter;stroke-opacity:1"/>
<path class="bond-0 atom-0 atom-1" d="M 135.431,371.747 L 134.481,378.385" style="fill:none;fill-rule:evenodd;stroke:#000000;stroke-width:2.0px;stroke-linecap:butt;stroke-linejoin:miter;stroke-opacity:1"/>
<path class="bond-0 atom-0 atom-1" d="M 139.575,365.566 L 138.624,372.204" style="fill:none;fill-rule:evenodd;stroke:#0000FF;stroke-width:2.0px;stroke-linecap:butt;stroke-linejoin:miter;stroke-opacity:1"/>
<path class="bond-0 atom-0 atom-1" d="M 138.624,372.204 L 137.673,378.842" style="fill:none;fill-rule:evenodd;stroke:#000000;stroke-width:2.0px;stroke-linecap:butt;stroke-linejoin:miter;stroke-opacity:1"/>
<path class="bond-1 atom-1 atom-2" d="M 136.077,378.614 L 141.35,382.756" style="fill:none;fill-rule:evenodd;stroke:#000000;stroke-width:2.0px;stroke-linecap:butt;stroke-linejoin:miter;stroke-opacity:1"/>
<path class="bond-1 atom-1 atom-2" d="M 141.35,382.756 L 146.624,386.898" style="fill:none;fill-rule:evenodd;stroke:#0000FF;stroke-width:2.0px;stroke-linecap:butt;stroke-linejoin:miter;stroke-opacity:1"/>
<path class="bond-2 atom-1 atom-3" d="M 136.077,378.614 L 121.109,384.616" style="fill:none;fill-rule:evenodd;stroke:#000000;stroke-width:2.0px;stroke-linecap:butt;stroke-linejoin:miter;stroke-opacity:1"/>
<path class="bond-3 atom-3 atom-4" d="M 121.109,384.616 L 108.427,374.654" style="fill:none;fill-rule:evenodd;stroke:#000000;stroke-width:2.0px;stroke-linecap:butt;stroke-linejoin:miter;stroke-opacity:1"/>
<path class="bond-4 atom-4 atom-5" d="M 107.827,373.157 L 92.8594,379.159" style="fill:none;fill-rule:evenodd;stroke:#000000;stroke-width:2.0px;stroke-linecap:butt;stroke-linejoin:miter;stroke-opacity:1"/>
<path class="bond-4 atom-4 atom-5" d="M 109.028,376.151 L 94.0598,382.153" style="fill:none;fill-rule:evenodd;stroke:#000000;stroke-width:2.0px;stroke-linecap:butt;stroke-linejoin:miter;stroke-opacity:1"/>
<path class="atom-0" d="M 137.354 360.367 L 138.85 362.786 Q 138.999 363.024, 139.237 363.457 Q 139.476 363.889, 139.489 363.915 L 139.489 360.367 L 140.095 360.367 L 140.095 364.934 L 139.469 364.934 L 137.863 362.289 Q 137.676 361.979, 137.476 361.625 Q 137.283 361.27, 137.225 361.16 L 137.225 364.934 L 136.631 364.934 L 136.631 360.367 L 137.354 360.367 " fill="#0000FF"/>
<path class="atom-0" d="M 140.643 360.367 L 141.263 360.367 L 141.263 362.308 L 143.598 362.308 L 143.598 360.367 L 144.217 360.367 L 144.217 364.934 L 143.598 364.934 L 143.598 362.824 L 141.263 362.824 L 141.263 364.934 L 140.643 364.934 L 140.643 360.367 " fill="#0000FF"/>
<path class="atom-2" d="M 147.749 386.292 L 149.246 388.711 Q 149.394 388.95, 149.633 389.382 Q 149.871 389.814, 149.884 389.84 L 149.884 386.292 L 150.491 386.292 L 150.491 390.859 L 149.865 390.859 L 148.259 388.214 Q 148.072 387.905, 147.872 387.55 Q 147.678 387.195, 147.62 387.085 L 147.62 390.859 L 147.027 390.859 L 147.027 386.292 L 147.749 386.292 " fill="#0000FF"/>
<path class="atom-2" d="M 151.039 386.292 L 151.658 386.292 L 151.658 388.234 L 153.993 388.234 L 153.993 386.292 L 154.613 386.292 L 154.613 390.859 L 153.993 390.859 L 153.993 388.75 L 151.658 388.75 L 151.658 390.859 L 151.039 390.859 L 151.039 386.292 " fill="#0000FF"/>
<path class="atom-2" d="M 154.834 390.699 Q 154.945 390.413, 155.209 390.256 Q 155.473 390.094, 155.839 390.094 Q 156.294 390.094, 156.55 390.341 Q 156.805 390.588, 156.805 391.027 Q 156.805 391.474, 156.473 391.891 Q 156.145 392.308, 155.464 392.802 L 156.856 392.802 L 156.856 393.142 L 154.825 393.142 L 154.825 392.857 Q 155.387 392.457, 155.72 392.159 Q 156.056 391.861, 156.218 391.593 Q 156.379 391.325, 156.379 391.048 Q 156.379 390.758, 156.235 390.597 Q 156.09 390.435, 155.839 390.435 Q 155.596 390.435, 155.434 390.533 Q 155.272 390.631, 155.158 390.848 L 154.834 390.699 " fill="#0000FF"/>
<path class="bond-0 atom-0 atom-1" d="M 340.72,382.147 L 334.009,380.317" style="fill:none;fill-rule:evenodd;stroke:#000000;stroke-width:2.0px;stroke-linecap:butt;stroke-linejoin:miter;stroke-opacity:1"/>
<path class="bond-0 atom-0 atom-1" d="M 334.009,380.317 L 327.297,378.486" style="fill:none;fill-rule:evenodd;stroke:#0000FF;stroke-width:2.0px;stroke-linecap:butt;stroke-linejoin:miter;stroke-opacity:1"/>
<path class="bond-1 atom-0 atom-2" d="M 340.72,382.147 L 352.174,370.795" style="fill:none;fill-rule:evenodd;stroke:#000000;stroke-width:2.0px;stroke-linecap:butt;stroke-linejoin:miter;stroke-opacity:1"/>
<path class="bond-2 atom-2 atom-3" d="M 352.174,370.795 L 367.732,375.037" style="fill:none;fill-rule:evenodd;stroke:#000000;stroke-width:2.0px;stroke-linecap:butt;stroke-linejoin:miter;stroke-opacity:1"/>
<path class="bond-3 atom-3 atom-4" d="M 367.732,375.037 L 379.186,363.685" style="fill:none;fill-rule:evenodd;stroke:#000000;stroke-width:2.0px;stroke-linecap:butt;stroke-linejoin:miter;stroke-opacity:1"/>
<path class="bond-4 atom-4 atom-5" d="M 379.186,363.685 L 385.897,365.516" style="fill:none;fill-rule:evenodd;stroke:#000000;stroke-width:2.0px;stroke-linecap:butt;stroke-linejoin:miter;stroke-opacity:1"/>
<path class="bond-4 atom-4 atom-5" d="M 385.897,365.516 L 392.609,367.346" style="fill:none;fill-rule:evenodd;stroke:#0000FF;stroke-width:2.0px;stroke-linecap:butt;stroke-linejoin:miter;stroke-opacity:1"/>
<path class="bond-5 atom-5 atom-6" d="M 396.879,365.812 L 401.538,361.194" style="fill:none;fill-rule:evenodd;stroke:#0000FF;stroke-width:2.0px;stroke-linecap:butt;stroke-linejoin:miter;stroke-opacity:1"/>
<path class="bond-5 atom-5 atom-6" d="M 401.538,361.194 L 406.197,356.576" style="fill:none;fill-rule:evenodd;stroke:#000000;stroke-width:2.0px;stroke-linecap:butt;stroke-linejoin:miter;stroke-opacity:1"/>
<path class="bond-6 atom-5 atom-7" d="M 395.451,370.615 L 397.15,377.069" style="fill:none;fill-rule:evenodd;stroke:#0000FF;stroke-width:2.0px;stroke-linecap:butt;stroke-linejoin:miter;stroke-opacity:1"/>
<path class="bond-6 atom-5 atom-7" d="M 397.15,377.069 L 398.848,383.523" style="fill:none;fill-rule:evenodd;stroke:#000000;stroke-width:2.0px;stroke-linecap:butt;stroke-linejoin:miter;stroke-opacity:1"/>
<path class="bond-7 atom-7 atom-8" d="M 398.848,383.523 L 387.395,394.876" style="fill:none;fill-rule:evenodd;stroke:#000000;stroke-width:2.0px;stroke-linecap:butt;stroke-linejoin:miter;stroke-opacity:1"/>
<path class="bond-8 atom-8 atom-9" d="M 387.395,394.876 L 389.092,401.325" style="fill:none;fill-rule:evenodd;stroke:#000000;stroke-width:2.0px;stroke-linecap:butt;stroke-linejoin:miter;stroke-opacity:1"/>
<path class="bond-8 atom-8 atom-9" d="M 389.092,401.325 L 390.79,407.775" style="fill:none;fill-rule:evenodd;stroke:#A01EEF;stroke-width:2.0px;stroke-linecap:butt;stroke-linejoin:miter;stroke-opacity:1"/>
<path class="atom-1" d="M 317.116 375.62 L 317.735 375.62 L 317.735 377.562 L 320.07 377.562 L 320.07 375.62 L 320.69 375.62 L 320.69 380.187 L 320.07 380.187 L 320.07 378.078 L 317.735 378.078 L 317.735 380.187 L 317.116 380.187 L 317.116 375.62 " fill="#0000FF"/>
<path class="atom-1" d="M 322.316 380.883 Q 322.61 380.968, 322.75 381.16 Q 322.895 381.347, 322.895 381.645 Q 322.895 381.9, 322.767 382.101 Q 322.639 382.296, 322.405 382.407 Q 322.171 382.513, 321.865 382.513 Q 321.541 382.513, 321.298 382.403 Q 321.06 382.288, 320.868 382.058 L 321.111 381.811 Q 321.298 382.015, 321.456 382.096 Q 321.613 382.173, 321.865 382.173 Q 322.137 382.173, 322.303 382.028 Q 322.469 381.879, 322.469 381.641 Q 322.469 381.334, 322.295 381.198 Q 322.124 381.057, 321.754 381.057 L 321.537 381.057 L 321.537 380.751 L 321.728 380.751 Q 322.056 380.747, 322.231 380.606 Q 322.405 380.461, 322.405 380.193 Q 322.405 379.997, 322.261 379.882 Q 322.116 379.763, 321.869 379.763 Q 321.618 379.763, 321.46 379.853 Q 321.307 379.942, 321.188 380.168 L 320.894 380.01 Q 321 379.759, 321.256 379.593 Q 321.511 379.423, 321.869 379.423 Q 322.312 379.423, 322.571 379.631 Q 322.831 379.84, 322.831 380.193 Q 322.831 380.436, 322.699 380.61 Q 322.567 380.785, 322.316 380.883 " fill="#0000FF"/>
<path class="atom-1" d="M 324.153 375.62 L 325.649 378.039 Q 325.798 378.278, 326.036 378.71 Q 326.275 379.142, 326.288 379.168 L 326.288 375.62 L 326.894 375.62 L 326.894 380.187 L 326.268 380.187 L 324.662 377.543 Q 324.475 377.233, 324.275 376.878 Q 324.082 376.523, 324.024 376.414 L 324.024 380.187 L 323.43 380.187 L 323.43 375.62 L 324.153 375.62 " fill="#0000FF"/>
<path class="atom-1" d="M 327.277 376.444 L 328.082 376.444 L 328.082 375.596 L 328.44 375.596 L 328.44 376.444 L 329.266 376.444 L 329.266 376.75 L 328.44 376.75 L 328.44 377.602 L 328.082 377.602 L 328.082 376.75 L 327.277 376.75 L 327.277 376.444 " fill="#0000FF"/>
<path class="atom-5" d="M 393.734 365.645 L 395.231 368.064 Q 395.379 368.302, 395.618 368.734 Q 395.857 369.167, 395.87 369.192 L 395.87 365.645 L 396.476 365.645 L 396.476 370.212 L 395.85 370.212 L 394.244 367.567 Q 394.057 367.257, 393.857 366.902 Q 393.663 366.548, 393.605 366.438 L 393.605 370.212 L 393.012 370.212 L 393.012 365.645 L 393.734 365.645 " fill="#0000FF"/>
<path class="atom-9" d="M 391.193 408.178 L 391.806 408.178 L 391.806 412.764 L 391.193 412.764 L 391.193 408.178 " fill="#A01EEF"/>
<path d="M 341.688,383.598 L 341.687,383.57 L 341.683,383.543 L 341.677,383.516 L 341.669,383.489 L 341.659,383.464 L 341.646,383.439 L 341.631,383.415 L 341.614,383.393 L 341.596,383.373 L 341.576,383.354 L 341.554,383.336 L 341.531,383.321 L 341.506,383.308 L 341.481,383.297 L 341.454,383.288 L 341.428,383.282 L 341.4,383.278 L 341.372,383.276 L 341.345,383.276 L 341.317,383.279 L 341.29,383.285 L 341.263,383.292 L 341.237,383.302 L 341.212,383.314 L 341.188,383.329 L 341.166,383.345 L 341.145,383.363 L 341.125,383.383 L 341.108,383.404 L 341.092,383.427 L 341.078,383.451 L 341.067,383.476 L 341.057,383.503 L 341.05,383.529 L 341.046,383.557 L 341.043,383.584 L 341.043,383.612 L 341.046,383.64 L 341.05,383.667 L 341.057,383.694 L 341.067,383.72 L 341.078,383.745 L 341.092,383.769 L 341.108,383.792 L 341.125,383.814 L 341.145,383.834 L 341.166,383.852 L 341.188,383.868 L 341.212,383.882 L 341.237,383.894 L 341.263,383.904 L 341.29,383.912 L 341.317,383.917 L 341.345,383.92 L 341.372,383.921 L 341.4,383.919 L 341.428,383.915 L 341.454,383.908 L 341.481,383.899 L 341.506,383.888 L 341.531,383.875 L 341.554,383.86 L 341.576,383.843 L 341.596,383.824 L 341.614,383.803 L 341.631,383.781 L 341.646,383.757 L 341.659,383.733 L 341.669,383.707 L 341.677,383.681 L 341.683,383.653 L 341.687,383.626 L 341.688,383.598 L 341.365,383.598 Z" style="fill:#000000;fill-rule:evenodd;fill-opacity:1;stroke:#000000;stroke-width:0.0px;stroke-linecap:butt;stroke-linejoin:miter;stroke-opacity:1;"/>
<path d="M 340.398,383.598 L 340.397,383.57 L 340.393,383.543 L 340.387,383.516 L 340.379,383.489 L 340.368,383.464 L 340.356,383.439 L 340.341,383.415 L 340.324,383.393 L 340.306,383.373 L 340.286,383.354 L 340.264,383.336 L 340.241,383.321 L 340.216,383.308 L 340.191,383.297 L 340.164,383.288 L 340.137,383.282 L 340.11,383.278 L 340.082,383.276 L 340.055,383.276 L 340.027,383.279 L 340,383.285 L 339.973,383.292 L 339.947,383.302 L 339.922,383.314 L 339.898,383.329 L 339.876,383.345 L 339.855,383.363 L 339.835,383.383 L 339.818,383.404 L 339.802,383.427 L 339.788,383.451 L 339.777,383.476 L 339.767,383.503 L 339.76,383.529 L 339.755,383.557 L 339.753,383.584 L 339.753,383.612 L 339.755,383.64 L 339.76,383.667 L 339.767,383.694 L 339.777,383.72 L 339.788,383.745 L 339.802,383.769 L 339.818,383.792 L 339.835,383.814 L 339.855,383.834 L 339.876,383.852 L 339.898,383.868 L 339.922,383.882 L 339.947,383.894 L 339.973,383.904 L 340,383.912 L 340.027,383.917 L 340.055,383.92 L 340.082,383.921 L 340.11,383.919 L 340.137,383.915 L 340.164,383.908 L 340.191,383.899 L 340.216,383.888 L 340.241,383.875 L 340.264,383.86 L 340.286,383.843 L 340.306,383.824 L 340.324,383.803 L 340.341,383.781 L 340.356,383.757 L 340.368,383.733 L 340.379,383.707 L 340.387,383.681 L 340.393,383.653 L 340.397,383.626 L 340.398,383.598 L 340.075,383.598 Z" style="fill:#000000;fill-rule:evenodd;fill-opacity:1;stroke:#000000;stroke-width:0.0px;stroke-linecap:butt;stroke-linejoin:miter;stroke-opacity:1;"/>
<path class="bond-0 atom-0 atom-1" d="M 624.896,405.404 L 619.98,390.045" style="fill:none;fill-rule:evenodd;stroke:#000000;stroke-width:2.0px;stroke-linecap:butt;stroke-linejoin:miter;stroke-opacity:1"/>
<path class="bond-1 atom-1 atom-2" d="M 619.98,390.045 L 604.221,386.623" style="fill:none;fill-rule:evenodd;stroke:#000000;stroke-width:2.0px;stroke-linecap:butt;stroke-linejoin:miter;stroke-opacity:1"/>
<path class="bond-1 atom-1 atom-2" d="M 618.301,386.38 L 607.27,383.985" style="fill:none;fill-rule:evenodd;stroke:#000000;stroke-width:2.0px;stroke-linecap:butt;stroke-linejoin:miter;stroke-opacity:1"/>
<path class="bond-8 atom-6 atom-1" d="M 630.824,378.109 L 619.98,390.045" style="fill:none;fill-rule:evenodd;stroke:#000000;stroke-width:2.0px;stroke-linecap:butt;stroke-linejoin:miter;stroke-opacity:1"/>
<path class="bond-2 atom-2 atom-3" d="M 604.221,386.623 L 599.306,371.264" style="fill:none;fill-rule:evenodd;stroke:#000000;stroke-width:2.0px;stroke-linecap:butt;stroke-linejoin:miter;stroke-opacity:1"/>
<path class="bond-3 atom-3 atom-4" d="M 599.306,371.264 L 610.149,359.328" style="fill:none;fill-rule:evenodd;stroke:#000000;stroke-width:2.0px;stroke-linecap:butt;stroke-linejoin:miter;stroke-opacity:1"/>
<path class="bond-3 atom-3 atom-4" d="M 603.319,371.642 L 610.91,363.287" style="fill:none;fill-rule:evenodd;stroke:#000000;stroke-width:2.0px;stroke-linecap:butt;stroke-linejoin:miter;stroke-opacity:1"/>
<path class="bond-4 atom-4 atom-5" d="M 610.149,359.328 L 625.908,362.75" style="fill:none;fill-rule:evenodd;stroke:#000000;stroke-width:2.0px;stroke-linecap:butt;stroke-linejoin:miter;stroke-opacity:1"/>
<path class="bond-5 atom-5 atom-6" d="M 625.908,362.75 L 630.824,378.109" style="fill:none;fill-rule:evenodd;stroke:#000000;stroke-width:2.0px;stroke-linecap:butt;stroke-linejoin:miter;stroke-opacity:1"/>
<path class="bond-5 atom-5 atom-6" d="M 623.573,366.037 L 627.015,376.788" style="fill:none;fill-rule:evenodd;stroke:#000000;stroke-width:2.0px;stroke-linecap:butt;stroke-linejoin:miter;stroke-opacity:1"/>
<path class="bond-6 atom-6 atom-7" d="M 630.824,378.109 L 637.636,379.588" style="fill:none;fill-rule:evenodd;stroke:#000000;stroke-width:2.0px;stroke-linecap:butt;stroke-linejoin:miter;stroke-opacity:1"/>
<path class="bond-6 atom-6 atom-7" d="M 637.636,379.588 L 644.448,381.067" style="fill:none;fill-rule:evenodd;stroke:#0000FF;stroke-width:2.0px;stroke-linecap:butt;stroke-linejoin:miter;stroke-opacity:1"/>
<path class="bond-7 atom-7 atom-8" d="M 649.912,380.265 L 653.056,376.804" style="fill:none;fill-rule:evenodd;stroke:#0000FF;stroke-width:2.0px;stroke-linecap:butt;stroke-linejoin:miter;stroke-opacity:1"/>
<path class="bond-7 atom-7 atom-8" d="M 653.056,376.804 L 656.199,373.343" style="fill:none;fill-rule:evenodd;stroke:#FF0000;stroke-width:2.0px;stroke-linecap:butt;stroke-linejoin:miter;stroke-opacity:1"/>
<path class="bond-7 atom-7 atom-8" d="M 647.524,378.096 L 650.668,374.635" style="fill:none;fill-rule:evenodd;stroke:#0000FF;stroke-width:2.0px;stroke-linecap:butt;stroke-linejoin:miter;stroke-opacity:1"/>
<path class="bond-7 atom-7 atom-8" d="M 650.668,374.635 L 653.812,371.174" style="fill:none;fill-rule:evenodd;stroke:#FF0000;stroke-width:2.0px;stroke-linecap:butt;stroke-linejoin:miter;stroke-opacity:1"/>
<path class="atom-7" d="M 645.573 379.247 L 647.07 381.666 Q 647.218 381.905, 647.457 382.337 Q 647.695 382.769, 647.708 382.795 L 647.708 379.247 L 648.315 379.247 L 648.315 383.814 L 647.689 383.814 L 646.083 381.17 Q 645.896 380.86, 645.696 380.505 Q 645.502 380.15, 645.444 380.041 L 645.444 383.814 L 644.851 383.814 L 644.851 379.247 L 645.573 379.247 " fill="#0000FF"/>
<path class="atom-8" d="M 655.33 369.607 Q 655.33 368.51, 655.871 367.898 Q 656.413 367.285, 657.426 367.285 Q 658.439 367.285, 658.981 367.898 Q 659.522 368.51, 659.522 369.607 Q 659.522 370.716, 658.974 371.349 Q 658.426 371.974, 657.426 371.974 Q 656.42 371.974, 655.871 371.349 Q 655.33 370.723, 655.33 369.607 M 657.426 371.458 Q 658.123 371.458, 658.497 370.994 Q 658.877 370.523, 658.877 369.607 Q 658.877 368.71, 658.497 368.259 Q 658.123 367.801, 657.426 367.801 Q 656.729 367.801, 656.349 368.252 Q 655.975 368.704, 655.975 369.607 Q 655.975 370.529, 656.349 370.994 Q 656.729 371.458, 657.426 371.458 " fill="#FF0000"/>
<path class="atom-8" d="M 660.071 367.336 L 660.69 367.336 L 660.69 369.278 L 663.025 369.278 L 663.025 367.336 L 663.644 367.336 L 663.644 371.903 L 663.025 371.903 L 663.025 369.794 L 660.69 369.794 L 660.69 371.903 L 660.071 371.903 L 660.071 367.336 " fill="#FF0000"/>
<path class="atom-8" d="M 664.027 368.16 L 664.832 368.16 L 664.832 367.312 L 665.19 367.312 L 665.19 368.16 L 666.016 368.16 L 666.016 368.466 L 665.19 368.466 L 665.19 369.318 L 664.832 369.318 L 664.832 368.466 L 664.027 368.466 L 664.027 368.16 " fill="#FF0000"/>
<path class="bond-0 atom-0 atom-1" d="M 116.303,629.907 L 123.116,629.907" style="fill:none;fill-rule:evenodd;stroke:#000000;stroke-width:2.0px;stroke-linecap:butt;stroke-linejoin:miter;stroke-opacity:1"/>
<path class="bond-0 atom-0 atom-1" d="M 123.116,629.907 L 129.929,629.907" style="fill:none;fill-rule:evenodd;stroke:#FF0000;stroke-width:2.0px;stroke-linecap:butt;stroke-linejoin:miter;stroke-opacity:1"/>
<path class="bond-0 atom-0 atom-1" d="M 116.303,626.682 L 123.116,626.682" style="fill:none;fill-rule:evenodd;stroke:#000000;stroke-width:2.0px;stroke-linecap:butt;stroke-linejoin:miter;stroke-opacity:1"/>
<path class="bond-0 atom-0 atom-1" d="M 123.116,626.682 L 129.929,626.682" style="fill:none;fill-rule:evenodd;stroke:#FF0000;stroke-width:2.0px;stroke-linecap:butt;stroke-linejoin:miter;stroke-opacity:1"/>
<path class="atom-1" d="M 130.333 628.307 Q 130.333 627.211, 130.874 626.598 Q 131.416 625.985, 132.429 625.985 Q 133.442 625.985, 133.984 626.598 Q 134.525 627.211, 134.525 628.307 Q 134.525 629.417, 133.977 630.049 Q 133.429 630.674, 132.429 630.674 Q 131.423 630.674, 130.874 630.049 Q 130.333 629.423, 130.333 628.307 M 132.429 630.158 Q 133.126 630.158, 133.5 629.694 Q 133.88 629.223, 133.88 628.307 Q 133.88 627.41, 133.5 626.959 Q 133.126 626.501, 132.429 626.501 Q 131.732 626.501, 131.352 626.952 Q 130.978 627.404, 130.978 628.307 Q 130.978 629.23, 131.352 629.694 Q 131.732 630.158, 132.429 630.158 " fill="#FF0000"/>
<path class="bond-0 atom-0 atom-1" d="M 373.145,673.832 L 372.655,668.452" style="fill:none;fill-rule:evenodd;stroke:#CCCC00;stroke-width:2.0px;stroke-linecap:butt;stroke-linejoin:miter;stroke-opacity:1"/>
<path class="bond-0 atom-0 atom-1" d="M 372.655,668.452 L 372.164,663.072" style="fill:none;fill-rule:evenodd;stroke:#0000FF;stroke-width:2.0px;stroke-linecap:butt;stroke-linejoin:miter;stroke-opacity:1"/>
<path class="bond-1 atom-1 atom-2" d="M 374.06,658.946 L 379.581,655.05" style="fill:none;fill-rule:evenodd;stroke:#0000FF;stroke-width:2.0px;stroke-linecap:butt;stroke-linejoin:miter;stroke-opacity:1"/>
<path class="bond-1 atom-1 atom-2" d="M 379.581,655.05 L 385.101,651.155" style="fill:none;fill-rule:evenodd;stroke:#000000;stroke-width:2.0px;stroke-linecap:butt;stroke-linejoin:miter;stroke-opacity:1"/>
<path class="bond-2 atom-2 atom-3" d="M 385.101,651.155 L 383.637,635.095" style="fill:none;fill-rule:evenodd;stroke:#000000;stroke-width:2.0px;stroke-linecap:butt;stroke-linejoin:miter;stroke-opacity:1"/>
<path class="bond-3 atom-3 atom-4" d="M 383.637,635.095 L 378.508,630.824" style="fill:none;fill-rule:evenodd;stroke:#000000;stroke-width:2.0px;stroke-linecap:butt;stroke-linejoin:miter;stroke-opacity:1"/>
<path class="bond-3 atom-3 atom-4" d="M 378.508,630.824 L 373.38,626.553" style="fill:none;fill-rule:evenodd;stroke:#0000FF;stroke-width:2.0px;stroke-linecap:butt;stroke-linejoin:miter;stroke-opacity:1"/>
<path class="bond-34 atom-22 atom-3" d="M 393.957,622.703 L 383.637,635.095" style="fill:none;fill-rule:evenodd;stroke:#000000;stroke-width:2.0px;stroke-linecap:butt;stroke-linejoin:miter;stroke-opacity:1"/>
<path class="bond-4 atom-4 atom-5" d="M 369.11,624.969 L 362.148,625.604" style="fill:none;fill-rule:evenodd;stroke:#0000FF;stroke-width:2.0px;stroke-linecap:butt;stroke-linejoin:miter;stroke-opacity:1"/>
<path class="bond-4 atom-4 atom-5" d="M 362.148,625.604 L 355.185,626.239" style="fill:none;fill-rule:evenodd;stroke:#000000;stroke-width:2.0px;stroke-linecap:butt;stroke-linejoin:miter;stroke-opacity:1"/>
<path class="bond-20 atom-4 atom-21" d="M 373.38,622.211 L 377.473,617.297" style="fill:none;fill-rule:evenodd;stroke:#0000FF;stroke-width:2.0px;stroke-linecap:butt;stroke-linejoin:miter;stroke-opacity:1"/>
<path class="bond-20 atom-4 atom-21" d="M 377.473,617.297 L 381.565,612.383" style="fill:none;fill-rule:evenodd;stroke:#000000;stroke-width:2.0px;stroke-linecap:butt;stroke-linejoin:miter;stroke-opacity:1"/>
<path class="bond-5 atom-5 atom-6" d="M 353.721,625.563 L 350.967,631.527" style="fill:none;fill-rule:evenodd;stroke:#000000;stroke-width:2.0px;stroke-linecap:butt;stroke-linejoin:miter;stroke-opacity:1"/>
<path class="bond-5 atom-5 atom-6" d="M 350.967,631.527 L 348.212,637.491" style="fill:none;fill-rule:evenodd;stroke:#FF0000;stroke-width:2.0px;stroke-linecap:butt;stroke-linejoin:miter;stroke-opacity:1"/>
<path class="bond-5 atom-5 atom-6" d="M 356.649,626.915 L 353.895,632.879" style="fill:none;fill-rule:evenodd;stroke:#000000;stroke-width:2.0px;stroke-linecap:butt;stroke-linejoin:miter;stroke-opacity:1"/>
<path class="bond-5 atom-5 atom-6" d="M 353.895,632.879 L 351.141,638.843" style="fill:none;fill-rule:evenodd;stroke:#FF0000;stroke-width:2.0px;stroke-linecap:butt;stroke-linejoin:miter;stroke-opacity:1"/>
<path class="bond-6 atom-5 atom-7" d="M 355.185,626.239 L 345.887,613.063" style="fill:none;fill-rule:evenodd;stroke:#000000;stroke-width:2.0px;stroke-linecap:butt;stroke-linejoin:miter;stroke-opacity:1"/>
<path class="bond-7 atom-7 atom-8" d="M 345.887,613.063 L 352.649,598.423" style="fill:none;fill-rule:evenodd;stroke:#000000;stroke-width:2.0px;stroke-linecap:butt;stroke-linejoin:miter;stroke-opacity:1"/>
<path class="bond-7 atom-7 atom-8" d="M 343.973,609.515 L 348.706,599.267" style="fill:none;fill-rule:evenodd;stroke:#000000;stroke-width:2.0px;stroke-linecap:butt;stroke-linejoin:miter;stroke-opacity:1"/>
<path class="bond-33 atom-13 atom-7" d="M 329.827,614.528 L 345.887,613.063" style="fill:none;fill-rule:evenodd;stroke:#000000;stroke-width:2.0px;stroke-linecap:butt;stroke-linejoin:miter;stroke-opacity:1"/>
<path class="bond-8 atom-8 atom-9" d="M 352.649,598.423 L 343.35,585.247" style="fill:none;fill-rule:evenodd;stroke:#000000;stroke-width:2.0px;stroke-linecap:butt;stroke-linejoin:miter;stroke-opacity:1"/>
<path class="bond-9 atom-9 atom-10" d="M 343.35,585.247 L 327.291,586.712" style="fill:none;fill-rule:evenodd;stroke:#000000;stroke-width:2.0px;stroke-linecap:butt;stroke-linejoin:miter;stroke-opacity:1"/>
<path class="bond-9 atom-9 atom-10" d="M 341.234,588.679 L 329.993,589.704" style="fill:none;fill-rule:evenodd;stroke:#000000;stroke-width:2.0px;stroke-linecap:butt;stroke-linejoin:miter;stroke-opacity:1"/>
<path class="bond-10 atom-10 atom-11" d="M 327.291,586.712 L 322.992,580.62" style="fill:none;fill-rule:evenodd;stroke:#000000;stroke-width:2.0px;stroke-linecap:butt;stroke-linejoin:miter;stroke-opacity:1"/>
<path class="bond-10 atom-10 atom-11" d="M 322.992,580.62 L 318.692,574.528" style="fill:none;fill-rule:evenodd;stroke:#00CC00;stroke-width:2.0px;stroke-linecap:butt;stroke-linejoin:miter;stroke-opacity:1"/>
<path class="bond-11 atom-10 atom-12" d="M 327.291,586.712 L 320.529,601.352" style="fill:none;fill-rule:evenodd;stroke:#000000;stroke-width:2.0px;stroke-linecap:butt;stroke-linejoin:miter;stroke-opacity:1"/>
<path class="bond-12 atom-12 atom-13" d="M 320.529,601.352 L 329.827,614.528" style="fill:none;fill-rule:evenodd;stroke:#000000;stroke-width:2.0px;stroke-linecap:butt;stroke-linejoin:miter;stroke-opacity:1"/>
<path class="bond-12 atom-12 atom-13" d="M 324.559,601.469 L 331.068,610.692" style="fill:none;fill-rule:evenodd;stroke:#000000;stroke-width:2.0px;stroke-linecap:butt;stroke-linejoin:miter;stroke-opacity:1"/>
<path class="bond-13 atom-13 atom-14" d="M 329.827,614.528 L 323.066,629.168" style="fill:none;fill-rule:evenodd;stroke:#000000;stroke-width:2.0px;stroke-linecap:butt;stroke-linejoin:miter;stroke-opacity:1"/>
<path class="bond-14 atom-14 atom-15" d="M 323.066,629.168 L 307.006,630.633" style="fill:none;fill-rule:evenodd;stroke:#000000;stroke-width:2.0px;stroke-linecap:butt;stroke-linejoin:miter;stroke-opacity:1"/>
<path class="bond-14 atom-14 atom-15" d="M 320.364,626.176 L 309.122,627.201" style="fill:none;fill-rule:evenodd;stroke:#000000;stroke-width:2.0px;stroke-linecap:butt;stroke-linejoin:miter;stroke-opacity:1"/>
<path class="bond-15 atom-15 atom-16" d="M 307.006,630.633 L 300.245,645.273" style="fill:none;fill-rule:evenodd;stroke:#000000;stroke-width:2.0px;stroke-linecap:butt;stroke-linejoin:miter;stroke-opacity:1"/>
<path class="bond-16 atom-16 atom-17" d="M 300.245,645.273 L 284.185,646.738" style="fill:none;fill-rule:evenodd;stroke:#000000;stroke-width:2.0px;stroke-linecap:butt;stroke-linejoin:miter;stroke-opacity:1"/>
<path class="bond-16 atom-16 atom-17" d="M 297.543,642.281 L 286.301,643.306" style="fill:none;fill-rule:evenodd;stroke:#000000;stroke-width:2.0px;stroke-linecap:butt;stroke-linejoin:miter;stroke-opacity:1"/>
<path class="bond-17 atom-17 atom-18" d="M 284.185,646.738 L 279.886,640.646" style="fill:none;fill-rule:evenodd;stroke:#000000;stroke-width:2.0px;stroke-linecap:butt;stroke-linejoin:miter;stroke-opacity:1"/>
<path class="bond-17 atom-17 atom-18" d="M 279.886,640.646 L 275.587,634.554" style="fill:none;fill-rule:evenodd;stroke:#00CC00;stroke-width:2.0px;stroke-linecap:butt;stroke-linejoin:miter;stroke-opacity:1"/>
<path class="bond-18 atom-17 atom-19" d="M 284.185,646.738 L 277.423,661.378" style="fill:none;fill-rule:evenodd;stroke:#000000;stroke-width:2.0px;stroke-linecap:butt;stroke-linejoin:miter;stroke-opacity:1"/>
<path class="bond-19 atom-19 atom-20" d="M 277.277,659.772 L 261.217,661.237" style="fill:none;fill-rule:evenodd;stroke:#000000;stroke-width:2.0px;stroke-linecap:butt;stroke-linejoin:miter;stroke-opacity:1"/>
<path class="bond-19 atom-19 atom-20" d="M 277.57,662.984 L 261.51,664.449" style="fill:none;fill-rule:evenodd;stroke:#000000;stroke-width:2.0px;stroke-linecap:butt;stroke-linejoin:miter;stroke-opacity:1"/>
<path class="bond-21 atom-21 atom-22" d="M 381.565,612.383 L 393.957,622.703" style="fill:none;fill-rule:evenodd;stroke:#000000;stroke-width:2.0px;stroke-linecap:butt;stroke-linejoin:miter;stroke-opacity:1"/>
<path class="bond-22 atom-22 atom-23" d="M 393.957,622.703 L 410.017,621.239" style="fill:none;fill-rule:evenodd;stroke:#000000;stroke-width:2.0px;stroke-linecap:butt;stroke-linejoin:miter;stroke-opacity:1"/>
<path class="bond-23 atom-23 atom-24" d="M 410.017,621.239 L 419.315,634.415" style="fill:none;fill-rule:evenodd;stroke:#000000;stroke-width:2.0px;stroke-linecap:butt;stroke-linejoin:miter;stroke-opacity:1"/>
<path class="bond-24 atom-24 atom-25" d="M 419.315,634.415 L 435.374,632.95" style="fill:none;fill-rule:evenodd;stroke:#000000;stroke-width:2.0px;stroke-linecap:butt;stroke-linejoin:miter;stroke-opacity:1"/>
<path class="bond-24 atom-24 atom-25" d="M 421.431,630.983 L 432.673,629.958" style="fill:none;fill-rule:evenodd;stroke:#000000;stroke-width:2.0px;stroke-linecap:butt;stroke-linejoin:miter;stroke-opacity:1"/>
<path class="bond-25 atom-25 atom-26" d="M 435.374,632.95 L 445.999,645.082" style="fill:none;fill-rule:evenodd;stroke:#000000;stroke-width:2.0px;stroke-linecap:butt;stroke-linejoin:miter;stroke-opacity:1"/>
<path class="bond-36 atom-33 atom-25" d="M 442.028,621.783 L 438.701,627.367" style="fill:none;fill-rule:evenodd;stroke:#0000FF;stroke-width:2.0px;stroke-linecap:butt;stroke-linejoin:miter;stroke-opacity:1"/>
<path class="bond-36 atom-33 atom-25" d="M 438.701,627.367 L 435.374,632.95" style="fill:none;fill-rule:evenodd;stroke:#000000;stroke-width:2.0px;stroke-linecap:butt;stroke-linejoin:miter;stroke-opacity:1"/>
<path class="bond-26 atom-26 atom-27" d="M 445.999,645.082 L 460.82,638.726" style="fill:none;fill-rule:evenodd;stroke:#000000;stroke-width:2.0px;stroke-linecap:butt;stroke-linejoin:miter;stroke-opacity:1"/>
<path class="bond-26 atom-26 atom-27" d="M 446.951,641.164 L 457.326,636.716" style="fill:none;fill-rule:evenodd;stroke:#000000;stroke-width:2.0px;stroke-linecap:butt;stroke-linejoin:miter;stroke-opacity:1"/>
<path class="bond-27 atom-27 atom-28" d="M 460.82,638.726 L 475.461,645.488" style="fill:none;fill-rule:evenodd;stroke:#000000;stroke-width:2.0px;stroke-linecap:butt;stroke-linejoin:miter;stroke-opacity:1"/>
<path class="bond-35 atom-32 atom-27" d="M 459.356,622.667 L 460.82,638.726" style="fill:none;fill-rule:evenodd;stroke:#000000;stroke-width:2.0px;stroke-linecap:butt;stroke-linejoin:miter;stroke-opacity:1"/>
<path class="bond-28 atom-28 atom-29" d="M 475.461,645.488 L 488.636,636.19" style="fill:none;fill-rule:evenodd;stroke:#000000;stroke-width:2.0px;stroke-linecap:butt;stroke-linejoin:miter;stroke-opacity:1"/>
<path class="bond-28 atom-28 atom-29" d="M 475.577,641.458 L 484.8,634.949" style="fill:none;fill-rule:evenodd;stroke:#000000;stroke-width:2.0px;stroke-linecap:butt;stroke-linejoin:miter;stroke-opacity:1"/>
<path class="bond-29 atom-29 atom-30" d="M 488.636,636.19 L 487.172,620.13" style="fill:none;fill-rule:evenodd;stroke:#000000;stroke-width:2.0px;stroke-linecap:butt;stroke-linejoin:miter;stroke-opacity:1"/>
<path class="bond-30 atom-30 atom-31" d="M 487.172,620.13 L 472.531,613.369" style="fill:none;fill-rule:evenodd;stroke:#000000;stroke-width:2.0px;stroke-linecap:butt;stroke-linejoin:miter;stroke-opacity:1"/>
<path class="bond-30 atom-30 atom-31" d="M 483.623,622.044 L 473.375,617.311" style="fill:none;fill-rule:evenodd;stroke:#000000;stroke-width:2.0px;stroke-linecap:butt;stroke-linejoin:miter;stroke-opacity:1"/>
<path class="bond-31 atom-31 atom-32" d="M 472.531,613.369 L 459.356,622.667" style="fill:none;fill-rule:evenodd;stroke:#000000;stroke-width:2.0px;stroke-linecap:butt;stroke-linejoin:miter;stroke-opacity:1"/>
<path class="bond-32 atom-32 atom-33" d="M 459.356,622.667 L 452.56,621.124" style="fill:none;fill-rule:evenodd;stroke:#000000;stroke-width:2.0px;stroke-linecap:butt;stroke-linejoin:miter;stroke-opacity:1"/>
<path class="bond-32 atom-32 atom-33" d="M 452.56,621.124 L 445.764,619.582" style="fill:none;fill-rule:evenodd;stroke:#0000FF;stroke-width:2.0px;stroke-linecap:butt;stroke-linejoin:miter;stroke-opacity:1"/>
<path class="bond-32 atom-32 atom-33" d="M 456.603,625.349 L 451.846,624.269" style="fill:none;fill-rule:evenodd;stroke:#000000;stroke-width:2.0px;stroke-linecap:butt;stroke-linejoin:miter;stroke-opacity:1"/>
<path class="bond-32 atom-32 atom-33" d="M 451.846,624.269 L 447.089,623.19" style="fill:none;fill-rule:evenodd;stroke:#0000FF;stroke-width:2.0px;stroke-linecap:butt;stroke-linejoin:miter;stroke-opacity:1"/>
<path class="atom-0" d="M 372.1 678.08 Q 372.151 678.099, 372.364 678.19 Q 372.577 678.28, 372.809 678.338 Q 373.048 678.39, 373.28 678.39 Q 373.712 678.39, 373.964 678.183 Q 374.215 677.97, 374.215 677.603 Q 374.215 677.351, 374.086 677.196 Q 373.964 677.042, 373.77 676.958 Q 373.577 676.874, 373.254 676.777 Q 372.848 676.655, 372.603 676.538 Q 372.364 676.422, 372.19 676.177 Q 372.022 675.932, 372.022 675.519 Q 372.022 674.945, 372.409 674.59 Q 372.803 674.236, 373.577 674.236 Q 374.106 674.236, 374.706 674.487 L 374.557 674.984 Q 374.009 674.758, 373.596 674.758 Q 373.151 674.758, 372.906 674.945 Q 372.661 675.126, 372.667 675.442 Q 372.667 675.687, 372.79 675.835 Q 372.919 675.984, 373.099 676.068 Q 373.287 676.151, 373.596 676.248 Q 374.009 676.377, 374.254 676.506 Q 374.499 676.635, 374.673 676.9 Q 374.854 677.158, 374.854 677.603 Q 374.854 678.235, 374.428 678.577 Q 374.009 678.912, 373.306 678.912 Q 372.899 678.912, 372.59 678.822 Q 372.287 678.738, 371.925 678.59 L 372.1 678.08 " fill="#CCCC00"/>
<path class="atom-0" d="M 375.237 674.991 L 376.042 674.991 L 376.042 674.144 L 376.399 674.144 L 376.399 674.991 L 377.225 674.991 L 377.225 675.298 L 376.399 675.298 L 376.399 676.149 L 376.042 676.149 L 376.042 675.298 L 375.237 675.298 L 375.237 674.991 " fill="#CCCC00"/>
<path class="atom-1" d="M 366.084 658.169 L 366.703 658.169 L 366.703 660.111 L 369.039 660.111 L 369.039 658.169 L 369.658 658.169 L 369.658 662.736 L 369.039 662.736 L 369.039 660.627 L 366.703 660.627 L 366.703 662.736 L 366.084 662.736 L 366.084 658.169 " fill="#0000FF"/>
<path class="atom-1" d="M 370.916 658.169 L 372.412 660.588 Q 372.561 660.827, 372.799 661.259 Q 373.038 661.691, 373.051 661.717 L 373.051 658.169 L 373.657 658.169 L 373.657 662.736 L 373.031 662.736 L 371.425 660.092 Q 371.238 659.782, 371.038 659.427 Q 370.845 659.072, 370.787 658.963 L 370.787 662.736 L 370.193 662.736 L 370.193 658.169 L 370.916 658.169 " fill="#0000FF"/>
<path class="atom-4" d="M 370.235 622.491 L 371.732 624.91 Q 371.88 625.149, 372.119 625.581 Q 372.358 626.013, 372.371 626.039 L 372.371 622.491 L 372.977 622.491 L 372.977 627.058 L 372.351 627.058 L 370.745 624.413 Q 370.558 624.104, 370.358 623.749 Q 370.165 623.394, 370.106 623.285 L 370.106 627.058 L 369.513 627.058 L 369.513 622.491 L 370.235 622.491 " fill="#0000FF"/>
<path class="atom-6" d="M 346.327 640.892 Q 346.327 639.796, 346.869 639.183 Q 347.411 638.57, 348.424 638.57 Q 349.436 638.57, 349.978 639.183 Q 350.52 639.796, 350.52 640.892 Q 350.52 642.002, 349.972 642.634 Q 349.424 643.26, 348.424 643.26 Q 347.417 643.26, 346.869 642.634 Q 346.327 642.008, 346.327 640.892 M 348.424 642.744 Q 349.12 642.744, 349.495 642.279 Q 349.875 641.808, 349.875 640.892 Q 349.875 639.996, 349.495 639.544 Q 349.12 639.086, 348.424 639.086 Q 347.727 639.086, 347.347 639.538 Q 346.972 639.989, 346.972 640.892 Q 346.972 641.815, 347.347 642.279 Q 347.727 642.744, 348.424 642.744 " fill="#FF0000"/>
<path class="atom-11" d="M 313.619 573.694 Q 313.619 572.559, 314.148 571.965 Q 314.683 571.365, 315.696 571.365 Q 316.638 571.365, 317.141 572.03 L 316.715 572.378 Q 316.348 571.894, 315.696 571.894 Q 315.006 571.894, 314.638 572.359 Q 314.277 572.817, 314.277 573.694 Q 314.277 574.597, 314.651 575.061 Q 315.032 575.526, 315.767 575.526 Q 316.27 575.526, 316.857 575.223 L 317.038 575.706 Q 316.799 575.861, 316.438 575.951 Q 316.077 576.042, 315.677 576.042 Q 314.683 576.042, 314.148 575.435 Q 313.619 574.829, 313.619 573.694 " fill="#00CC00"/>
<path class="atom-11" d="M 317.696 571.088 L 318.289 571.088 L 318.289 575.984 L 317.696 575.984 L 317.696 571.088 " fill="#00CC00"/>
<path class="atom-18" d="M 270.513 633.72 Q 270.513 632.585, 271.042 631.991 Q 271.578 631.391, 272.59 631.391 Q 273.532 631.391, 274.035 632.056 L 273.609 632.404 Q 273.242 631.92, 272.59 631.92 Q 271.9 631.92, 271.532 632.385 Q 271.171 632.843, 271.171 633.72 Q 271.171 634.623, 271.545 635.087 Q 271.926 635.552, 272.661 635.552 Q 273.164 635.552, 273.751 635.249 L 273.932 635.732 Q 273.693 635.887, 273.332 635.978 Q 272.971 636.068, 272.571 636.068 Q 271.578 636.068, 271.042 635.462 Q 270.513 634.855, 270.513 633.72 " fill="#00CC00"/>
<path class="atom-18" d="M 274.59 631.114 L 275.183 631.114 L 275.183 636.01 L 274.59 636.01 L 274.59 631.114 " fill="#00CC00"/>
<path class="atom-33" d="M 442.62 616.813 L 444.116 619.232 Q 444.265 619.471, 444.503 619.903 Q 444.742 620.335, 444.755 620.361 L 444.755 616.813 L 445.361 616.813 L 445.361 621.38 L 444.736 621.38 L 443.129 618.736 Q 442.942 618.426, 442.742 618.071 Q 442.549 617.716, 442.491 617.607 L 442.491 621.38 L 441.897 621.38 L 441.897 616.813 L 442.62 616.813 " fill="#0000FF"/>
<path d="M 378.515,675.868 L 378.514,675.84 L 378.511,675.812 L 378.505,675.785 L 378.497,675.759 L 378.486,675.733 L 378.473,675.708 L 378.459,675.685 L 378.442,675.663 L 378.423,675.642 L 378.403,675.623 L 378.381,675.606 L 378.358,675.591 L 378.334,675.577 L 378.308,675.566 L 378.282,675.558 L 378.255,675.551 L 378.228,675.547 L 378.2,675.545 L 378.172,675.546 L 378.145,675.549 L 378.117,675.554 L 378.091,675.562 L 378.065,675.572 L 378.04,675.584 L 378.016,675.598 L 377.993,675.614 L 377.972,675.632 L 377.953,675.652 L 377.935,675.674 L 377.92,675.696 L 377.906,675.721 L 377.894,675.746 L 377.885,675.772 L 377.878,675.799 L 377.873,675.826 L 377.871,675.854 L 377.871,675.881 L 377.873,675.909 L 377.878,675.936 L 377.885,675.963 L 377.894,675.989 L 377.906,676.015 L 377.92,676.039 L 377.935,676.062 L 377.953,676.083 L 377.972,676.103 L 377.993,676.121 L 378.016,676.137 L 378.04,676.151 L 378.065,676.164 L 378.091,676.173 L 378.117,676.181 L 378.145,676.186 L 378.172,676.189 L 378.2,676.19 L 378.228,676.188 L 378.255,676.184 L 378.282,676.178 L 378.308,676.169 L 378.334,676.158 L 378.358,676.145 L 378.381,676.129 L 378.403,676.112 L 378.423,676.093 L 378.442,676.073 L 378.459,676.05 L 378.473,676.027 L 378.486,676.002 L 378.497,675.976 L 378.505,675.95 L 378.511,675.923 L 378.514,675.895 L 378.515,675.868 L 378.193,675.868 Z" style="fill:#000000;fill-rule:evenodd;fill-opacity:1;stroke:#000000;stroke-width:0.0px;stroke-linecap:butt;stroke-linejoin:miter;stroke-opacity:1;"/>
<path d="M 378.515,677.158 L 378.514,677.13 L 378.511,677.102 L 378.505,677.075 L 378.497,677.049 L 378.486,677.023 L 378.473,676.998 L 378.459,676.975 L 378.442,676.953 L 378.423,676.932 L 378.403,676.913 L 378.381,676.896 L 378.358,676.881 L 378.334,676.868 L 378.308,676.856 L 378.282,676.848 L 378.255,676.841 L 378.228,676.837 L 378.2,676.835 L 378.172,676.836 L 378.145,676.839 L 378.117,676.844 L 378.091,676.852 L 378.065,676.862 L 378.04,676.874 L 378.016,676.888 L 377.993,676.904 L 377.972,676.922 L 377.953,676.942 L 377.935,676.964 L 377.92,676.986 L 377.906,677.011 L 377.894,677.036 L 377.885,677.062 L 377.878,677.089 L 377.873,677.116 L 377.871,677.144 L 377.871,677.172 L 377.873,677.199 L 377.878,677.227 L 377.885,677.253 L 377.894,677.279 L 377.906,677.305 L 377.92,677.329 L 377.935,677.352 L 377.953,677.373 L 377.972,677.393 L 377.993,677.411 L 378.016,677.427 L 378.04,677.441 L 378.065,677.454 L 378.091,677.464 L 378.117,677.471 L 378.145,677.477 L 378.172,677.48 L 378.2,677.48 L 378.228,677.478 L 378.255,677.474 L 378.282,677.468 L 378.308,677.459 L 378.334,677.448 L 378.358,677.435 L 378.381,677.419 L 378.403,677.402 L 378.423,677.383 L 378.442,677.363 L 378.459,677.34 L 378.473,677.317 L 378.486,677.292 L 378.497,677.267 L 378.505,677.24 L 378.511,677.213 L 378.514,677.185 L 378.515,677.158 L 378.193,677.158 Z" style="fill:#000000;fill-rule:evenodd;fill-opacity:1;stroke:#000000;stroke-width:0.0px;stroke-linecap:butt;stroke-linejoin:miter;stroke-opacity:1;"/>
<path d="M 412.274,621.239 L 412.273,621.211 L 412.27,621.184 L 412.264,621.157 L 412.255,621.13 L 412.245,621.104 L 412.232,621.08 L 412.217,621.056 L 412.201,621.034 L 412.182,621.013 L 412.162,620.994 L 412.14,620.977 L 412.117,620.962 L 412.093,620.949 L 412.067,620.938 L 412.041,620.929 L 412.014,620.922 L 411.986,620.918 L 411.959,620.916 L 411.931,620.917 L 411.903,620.92 L 411.876,620.925 L 411.849,620.933 L 411.824,620.943 L 411.799,620.955 L 411.775,620.969 L 411.752,620.986 L 411.731,621.004 L 411.712,621.023 L 411.694,621.045 L 411.678,621.068 L 411.665,621.092 L 411.653,621.117 L 411.644,621.143 L 411.637,621.17 L 411.632,621.197 L 411.63,621.225 L 411.63,621.253 L 411.632,621.28 L 411.637,621.308 L 411.644,621.335 L 411.653,621.361 L 411.665,621.386 L 411.678,621.41 L 411.694,621.433 L 411.712,621.454 L 411.731,621.474 L 411.752,621.492 L 411.775,621.509 L 411.799,621.523 L 411.824,621.535 L 411.849,621.545 L 411.876,621.552 L 411.903,621.558 L 411.931,621.561 L 411.959,621.561 L 411.986,621.56 L 412.014,621.555 L 412.041,621.549 L 412.067,621.54 L 412.093,621.529 L 412.117,621.516 L 412.14,621.501 L 412.162,621.484 L 412.182,621.465 L 412.201,621.444 L 412.217,621.422 L 412.232,621.398 L 412.245,621.373 L 412.255,621.348 L 412.264,621.321 L 412.27,621.294 L 412.273,621.267 L 412.274,621.239 L 411.952,621.239 Z" style="fill:#000000;fill-rule:evenodd;fill-opacity:1;stroke:#000000;stroke-width:0.0px;stroke-linecap:butt;stroke-linejoin:miter;stroke-opacity:1;"/>
<path class="bond-0 atom-0 atom-1" d="M 641.49,638.767 L 638.234,633.127" style="fill:none;fill-rule:evenodd;stroke:#0000FF;stroke-width:2.0px;stroke-linecap:butt;stroke-linejoin:miter;stroke-opacity:1"/>
<path class="bond-0 atom-0 atom-1" d="M 638.234,633.127 L 634.978,627.488" style="fill:none;fill-rule:evenodd;stroke:#000000;stroke-width:2.0px;stroke-linecap:butt;stroke-linejoin:miter;stroke-opacity:1"/>
<path class="bond-0 atom-0 atom-1" d="M 638.696,640.38 L 635.44,634.74" style="fill:none;fill-rule:evenodd;stroke:#0000FF;stroke-width:2.0px;stroke-linecap:butt;stroke-linejoin:miter;stroke-opacity:1"/>
<path class="bond-0 atom-0 atom-1" d="M 635.44,634.74 L 632.184,629.101" style="fill:none;fill-rule:evenodd;stroke:#000000;stroke-width:2.0px;stroke-linecap:butt;stroke-linejoin:miter;stroke-opacity:1"/>
<path class="bond-1 atom-1 atom-2" d="M 633.581,628.294 L 641.644,614.328" style="fill:none;fill-rule:evenodd;stroke:#000000;stroke-width:2.0px;stroke-linecap:butt;stroke-linejoin:miter;stroke-opacity:1"/>
<path class="bond-2 atom-1 atom-3" d="M 633.581,628.294 L 617.455,628.294" style="fill:none;fill-rule:evenodd;stroke:#000000;stroke-width:2.0px;stroke-linecap:butt;stroke-linejoin:miter;stroke-opacity:1"/>
<path class="bond-3 atom-3 atom-4" d="M 617.455,628.294 L 610.272,628.294" style="fill:none;fill-rule:evenodd;stroke:#000000;stroke-width:2.0px;stroke-linecap:butt;stroke-linejoin:miter;stroke-opacity:1"/>
<path class="bond-3 atom-3 atom-4" d="M 610.272,628.294 L 603.089,628.294" style="fill:none;fill-rule:evenodd;stroke:#33CCCC;stroke-width:2.0px;stroke-linecap:butt;stroke-linejoin:miter;stroke-opacity:1"/>
<path class="bond-4 atom-3 atom-5" d="M 617.455,628.294 L 617.455,635.014" style="fill:none;fill-rule:evenodd;stroke:#000000;stroke-width:2.0px;stroke-linecap:butt;stroke-linejoin:miter;stroke-opacity:1"/>
<path class="bond-4 atom-3 atom-5" d="M 617.455,635.014 L 617.455,641.734" style="fill:none;fill-rule:evenodd;stroke:#33CCCC;stroke-width:2.0px;stroke-linecap:butt;stroke-linejoin:miter;stroke-opacity:1"/>
<path class="bond-5 atom-3 atom-6" d="M 617.455,628.294 L 617.455,621.574" style="fill:none;fill-rule:evenodd;stroke:#000000;stroke-width:2.0px;stroke-linecap:butt;stroke-linejoin:miter;stroke-opacity:1"/>
<path class="bond-5 atom-3 atom-6" d="M 617.455,621.574 L 617.455,614.854" style="fill:none;fill-rule:evenodd;stroke:#33CCCC;stroke-width:2.0px;stroke-linecap:butt;stroke-linejoin:miter;stroke-opacity:1"/>
<path class="atom-0" d="M 640.635 639.977 L 642.131 642.395 Q 642.279 642.634, 642.518 643.066 Q 642.757 643.499, 642.77 643.524 L 642.77 639.977 L 643.376 639.977 L 643.376 644.544 L 642.75 644.544 L 641.144 641.899 Q 640.957 641.589, 640.757 641.234 Q 640.564 640.88, 640.506 640.77 L 640.506 644.544 L 639.912 644.544 L 639.912 639.977 L 640.635 639.977 " fill="#0000FF"/>
<path class="atom-0" d="M 643.924 639.977 L 644.544 639.977 L 644.544 641.918 L 646.879 641.918 L 646.879 639.977 L 647.498 639.977 L 647.498 644.544 L 646.879 644.544 L 646.879 642.434 L 644.544 642.434 L 644.544 644.544 L 643.924 644.544 L 643.924 639.977 " fill="#0000FF"/>
<path class="atom-0" d="M 647.719 644.383 Q 647.83 644.098, 648.094 643.941 Q 648.358 643.779, 648.724 643.779 Q 649.18 643.779, 649.435 644.026 Q 649.691 644.273, 649.691 644.711 Q 649.691 645.158, 649.358 645.575 Q 649.031 645.993, 648.349 646.486 L 649.742 646.486 L 649.742 646.827 L 647.711 646.827 L 647.711 646.542 Q 648.273 646.142, 648.605 645.844 Q 648.941 645.546, 649.103 645.277 Q 649.265 645.009, 649.265 644.732 Q 649.265 644.443, 649.12 644.281 Q 648.975 644.119, 648.724 644.119 Q 648.481 644.119, 648.32 644.217 Q 648.158 644.315, 648.043 644.532 L 647.719 644.383 " fill="#0000FF"/>
<path class="atom-0" d="M 647.881 640.8 L 648.686 640.8 L 648.686 639.953 L 649.043 639.953 L 649.043 640.8 L 649.869 640.8 L 649.869 641.106 L 649.043 641.106 L 649.043 641.958 L 648.686 641.958 L 648.686 641.106 L 647.881 641.106 L 647.881 640.8 " fill="#0000FF"/>
<path class="atom-4" d="M 599.97 626.011 L 602.686 626.011 L 602.686 626.533 L 600.583 626.533 L 600.583 627.92 L 602.454 627.92 L 602.454 628.449 L 600.583 628.449 L 600.583 630.578 L 599.97 630.578 L 599.97 626.011 " fill="#33CCCC"/>
<path class="atom-5" d="M 616.097 642.137 L 618.812 642.137 L 618.812 642.66 L 616.71 642.66 L 616.71 644.046 L 618.58 644.046 L 618.58 644.575 L 616.71 644.575 L 616.71 646.704 L 616.097 646.704 L 616.097 642.137 " fill="#33CCCC"/>
<path class="atom-6" d="M 616.097 609.884 L 618.812 609.884 L 618.812 610.407 L 616.71 610.407 L 616.71 611.794 L 618.58 611.794 L 618.58 612.323 L 616.71 612.323 L 616.71 614.451 L 616.097 614.451 L 616.097 609.884 " fill="#33CCCC"/>
</svg>