<svg xmlns="http://www.w3.org/2000/svg" xmlns:rdkit="http://www.rdkit.org/xml" xmlns:xlink="http://www.w3.org/1999/xlink" version="1.1" baseProfile="full" xml:space="preserve" width="750px" height="750px" viewBox="0 0 750 750">
<!-- END OF HEADER -->
<rect style="opacity:1.0;fill:#FFFFFF;stroke:none" width="750" height="750" x="0" y="0"> </rect>
<rect style="opacity:1.0;fill:#FFFFFF;stroke:none" width="750" height="750" x="0" y="0"> </rect>
<rect style="opacity:1.0;fill:#FFFFFF;stroke:none" width="750" height="750" x="0" y="0"> </rect>
<rect style="opacity:1.0;fill:#FFFFFF;stroke:none" width="750" height="750" x="0" y="0"> </rect>
<rect style="opacity:1.0;fill:#FFFFFF;stroke:none" width="750" height="750" x="0" y="0"> </rect>
<rect style="opacity:1.0;fill:#FFFFFF;stroke:none" width="750" height="750" x="0" y="0"> </rect>
<rect style="opacity:1.0;fill:#FFFFFF;stroke:none" width="750" height="750" x="0" y="0"> </rect>
<rect style="opacity:1.0;fill:#FFFFFF;stroke:none" width="750" height="750" x="0" y="0"> </rect>
<rect style="opacity:1.0;fill:#FFFFFF;stroke:none" width="750" height="750" x="0" y="0"> </rect>
<rect style="opacity:1.0;fill:#FFFFFF;stroke:none" width="750" height="750" x="0" y="0"> </rect>
<path class="bond-0 atom-0 atom-1" d="M 33.914,141.78 L 42.0873,137.361" style="fill:none;fill-rule:evenodd;stroke:#0000FF;stroke-width:2.0px;stroke-linecap:butt;stroke-linejoin:miter;stroke-opacity:1"/>
<path class="bond-0 atom-0 atom-1" d="M 42.0873,137.361 L 50.2606,132.941" style="fill:none;fill-rule:evenodd;stroke:#CCCC00;stroke-width:2.0px;stroke-linecap:butt;stroke-linejoin:miter;stroke-opacity:1"/>
<path class="bond-0 atom-0 atom-1" d="M 31.4659,137.253 L 39.6392,132.833" style="fill:none;fill-rule:evenodd;stroke:#0000FF;stroke-width:2.0px;stroke-linecap:butt;stroke-linejoin:miter;stroke-opacity:1"/>
<path class="bond-0 atom-0 atom-1" d="M 39.6392,132.833 L 47.8126,128.414" style="fill:none;fill-rule:evenodd;stroke:#CCCC00;stroke-width:2.0px;stroke-linecap:butt;stroke-linejoin:miter;stroke-opacity:1"/>
<path class="bond-1 atom-1 atom-2" d="M 54.8999,130.952 L 64.3694,136.777" style="fill:none;fill-rule:evenodd;stroke:#CCCC00;stroke-width:2.0px;stroke-linecap:butt;stroke-linejoin:miter;stroke-opacity:1"/>
<path class="bond-1 atom-1 atom-2" d="M 64.3694,136.777 L 73.8388,142.603" style="fill:none;fill-rule:evenodd;stroke:#000000;stroke-width:2.0px;stroke-linecap:butt;stroke-linejoin:miter;stroke-opacity:1"/>
<path class="bond-2 atom-2 atom-3" d="M 73.8388,142.603 L 96.4759,130.362" style="fill:none;fill-rule:evenodd;stroke:#000000;stroke-width:2.0px;stroke-linecap:butt;stroke-linejoin:miter;stroke-opacity:1"/>
<path class="bond-3 atom-3 atom-4" d="M 96.4759,130.362 L 105.951,136.191" style="fill:none;fill-rule:evenodd;stroke:#000000;stroke-width:2.0px;stroke-linecap:butt;stroke-linejoin:miter;stroke-opacity:1"/>
<path class="bond-3 atom-3 atom-4" d="M 105.951,136.191 L 115.425,142.019" style="fill:none;fill-rule:evenodd;stroke:#FF7F00;stroke-width:2.0px;stroke-linecap:butt;stroke-linejoin:miter;stroke-opacity:1"/>
<path class="bond-3 atom-3 atom-4" d="M 96.6215,136.495 L 103.254,140.575" style="fill:none;fill-rule:evenodd;stroke:#000000;stroke-width:2.0px;stroke-linecap:butt;stroke-linejoin:miter;stroke-opacity:1"/>
<path class="bond-3 atom-3 atom-4" d="M 103.254,140.575 L 109.886,144.655" style="fill:none;fill-rule:evenodd;stroke:#FF7F00;stroke-width:2.0px;stroke-linecap:butt;stroke-linejoin:miter;stroke-opacity:1"/>
<path class="bond-4 atom-4 atom-5" d="M 121.365,142.24 L 131.198,136.923" style="fill:none;fill-rule:evenodd;stroke:#FF7F00;stroke-width:2.0px;stroke-linecap:butt;stroke-linejoin:miter;stroke-opacity:1"/>
<path class="bond-4 atom-4 atom-5" d="M 131.198,136.923 L 141.032,131.606" style="fill:none;fill-rule:evenodd;stroke:#000000;stroke-width:2.0px;stroke-linecap:butt;stroke-linejoin:miter;stroke-opacity:1"/>
<path class="bond-5 atom-5 atom-6" d="M 141.032,131.606 L 150.507,137.435" style="fill:none;fill-rule:evenodd;stroke:#000000;stroke-width:2.0px;stroke-linecap:butt;stroke-linejoin:miter;stroke-opacity:1"/>
<path class="bond-5 atom-5 atom-6" d="M 150.507,137.435 L 159.981,143.263" style="fill:none;fill-rule:evenodd;stroke:#FF7F00;stroke-width:2.0px;stroke-linecap:butt;stroke-linejoin:miter;stroke-opacity:1"/>
<path class="bond-5 atom-5 atom-6" d="M 141.178,137.738 L 147.81,141.818" style="fill:none;fill-rule:evenodd;stroke:#000000;stroke-width:2.0px;stroke-linecap:butt;stroke-linejoin:miter;stroke-opacity:1"/>
<path class="bond-5 atom-5 atom-6" d="M 147.81,141.818 L 154.442,145.898" style="fill:none;fill-rule:evenodd;stroke:#FF7F00;stroke-width:2.0px;stroke-linecap:butt;stroke-linejoin:miter;stroke-opacity:1"/>
<path class="bond-6 atom-6 atom-7" d="M 165.921,143.484 L 174.237,138.987" style="fill:none;fill-rule:evenodd;stroke:#FF7F00;stroke-width:2.0px;stroke-linecap:butt;stroke-linejoin:miter;stroke-opacity:1"/>
<path class="bond-6 atom-6 atom-7" d="M 174.237,138.987 L 182.554,134.491" style="fill:none;fill-rule:evenodd;stroke:#7F4C19;stroke-width:2.0px;stroke-linecap:butt;stroke-linejoin:miter;stroke-opacity:1"/>
<path class="atom-0" d="M 19.9617 137.715 L 20.9499 137.715 L 20.9499 140.813 L 24.6762 140.813 L 24.6762 137.715 L 25.6644 137.715 L 25.6644 145.003 L 24.6762 145.003 L 24.6762 141.637 L 20.9499 141.637 L 20.9499 145.003 L 19.9617 145.003 L 19.9617 137.715 " fill="#0000FF"/>
<path class="atom-0" d="M 27.6717 137.715 L 30.0599 141.575 Q 30.2967 141.956, 30.6775 142.645 Q 31.0584 143.335, 31.079 143.376 L 31.079 137.715 L 32.0466 137.715 L 32.0466 145.003 L 31.0481 145.003 L 28.4849 140.782 Q 28.1864 140.288, 27.8673 139.722 Q 27.5585 139.156, 27.4659 138.981 L 27.4659 145.003 L 26.5188 145.003 L 26.5188 137.715 L 27.6717 137.715 " fill="#0000FF"/>
<path class="atom-1" d="M 49.8611 131.62 Q 49.9434 131.651, 50.2831 131.795 Q 50.6228 131.939, 50.9934 132.032 Q 51.3742 132.114, 51.7448 132.114 Q 52.4345 132.114, 52.836 131.784 Q 53.2374 131.445, 53.2374 130.858 Q 53.2374 130.457, 53.0315 130.21 Q 52.836 129.962, 52.5271 129.829 Q 52.2183 129.695, 51.7036 129.54 Q 51.0551 129.345, 50.664 129.16 Q 50.2831 128.974, 50.0052 128.583 Q 49.7375 128.192, 49.7375 127.533 Q 49.7375 126.617, 50.3552 126.051 Q 50.9831 125.485, 52.2183 125.485 Q 53.0624 125.485, 54.0197 125.886 L 53.783 126.679 Q 52.908 126.318, 52.2492 126.318 Q 51.5389 126.318, 51.1478 126.617 Q 50.7566 126.905, 50.7669 127.41 Q 50.7669 127.801, 50.9625 128.038 Q 51.1684 128.274, 51.4566 128.408 Q 51.7551 128.542, 52.2492 128.696 Q 52.908 128.902, 53.2992 129.108 Q 53.6903 129.314, 53.9683 129.736 Q 54.2565 130.148, 54.2565 130.858 Q 54.2565 131.867, 53.5771 132.412 Q 52.908 132.948, 51.786 132.948 Q 51.1375 132.948, 50.6434 132.804 Q 50.1596 132.67, 49.5831 132.433 L 49.8611 131.62 " fill="#CCCC00"/>
<path class="atom-1" d="M 49.0684 117.265 L 50.0566 117.265 L 50.0566 120.364 L 53.783 120.364 L 53.783 117.265 L 54.7712 117.265 L 54.7712 124.553 L 53.783 124.553 L 53.783 121.187 L 50.0566 121.187 L 50.0566 124.553 L 49.0684 124.553 L 49.0684 117.265 " fill="#CCCC00"/>
<path class="atom-4" d="M 118.22 140.202 Q 119.466 140.202, 120.093 140.768 Q 120.721 141.324, 120.721 142.343 Q 120.721 143.352, 120.073 143.929 Q 119.435 144.495, 118.22 144.495 L 117.057 144.495 L 117.057 147.49 L 116.069 147.49 L 116.069 140.202 L 118.22 140.202 M 118.22 143.671 Q 118.93 143.671, 119.311 143.332 Q 119.692 142.992, 119.692 142.343 Q 119.692 141.695, 119.311 141.365 Q 118.941 141.026, 118.22 141.026 L 117.057 141.026 L 117.057 143.671 L 118.22 143.671 " fill="#FF7F00"/>
<path class="atom-6" d="M 162.776 141.446 Q 164.022 141.446, 164.65 142.012 Q 165.277 142.568, 165.277 143.587 Q 165.277 144.596, 164.629 145.172 Q 163.991 145.739, 162.776 145.739 L 161.613 145.739 L 161.613 148.734 L 160.625 148.734 L 160.625 141.446 L 162.776 141.446 M 162.776 144.915 Q 163.486 144.915, 163.867 144.575 Q 164.248 144.236, 164.248 143.587 Q 164.248 142.939, 163.867 142.609 Q 163.497 142.27, 162.776 142.27 L 161.613 142.27 L 161.613 144.915 L 162.776 144.915 " fill="#FF7F00"/>
<path class="atom-7" d="M 186.654 132.664 Q 187.354 132.86, 187.704 133.292 Q 188.064 133.714, 188.064 134.342 Q 188.064 135.351, 187.415 135.928 Q 186.777 136.494, 185.562 136.494 L 183.113 136.494 L 183.113 129.206 L 185.264 129.206 Q 186.509 129.206, 187.137 129.71 Q 187.765 130.214, 187.765 131.141 Q 187.765 132.242, 186.654 132.664 M 184.09 130.029 L 184.09 132.314 L 185.264 132.314 Q 185.984 132.314, 186.355 132.026 Q 186.736 131.728, 186.736 131.141 Q 186.736 130.029, 185.264 130.029 L 184.09 130.029 M 185.562 135.67 Q 186.273 135.67, 186.654 135.33 Q 187.034 134.991, 187.034 134.342 Q 187.034 133.745, 186.612 133.447 Q 186.201 133.138, 185.408 133.138 L 184.09 133.138 L 184.09 135.67 L 185.562 135.67 " fill="#7F4C19"/>
<path class="atom-7" d="M 189.721 131.203 L 189.834 131.934 Q 190.39 131.11, 191.296 131.11 Q 191.584 131.11, 191.975 131.213 L 191.821 132.078 Q 191.378 131.975, 191.131 131.975 Q 190.699 131.975, 190.411 132.15 Q 190.133 132.314, 189.906 132.716 L 189.906 136.494 L 188.939 136.494 L 188.939 131.203 L 189.721 131.203 " fill="#7F4C19"/>
<path d="M 74.3535,144.919 L 74.3516,144.874 L 74.3459,144.83 L 74.3365,144.787 L 74.3233,144.745 L 74.3066,144.704 L 74.2864,144.664 L 74.2629,144.627 L 74.2363,144.592 L 74.2067,144.559 L 74.1744,144.528 L 74.1396,144.501 L 74.1025,144.477 L 74.0636,144.456 L 74.0229,144.438 L 73.9809,144.424 L 73.9379,144.414 L 73.8941,144.407 L 73.8499,144.404 L 73.8056,144.405 L 73.7616,144.41 L 73.7181,144.418 L 73.6756,144.431 L 73.6342,144.446 L 73.5944,144.466 L 73.5563,144.488 L 73.5204,144.514 L 73.4868,144.543 L 73.4558,144.575 L 73.4277,144.609 L 73.4026,144.645 L 73.3807,144.684 L 73.3623,144.724 L 73.3473,144.766 L 73.336,144.809 L 73.3284,144.852 L 73.3246,144.896 L 73.3246,144.941 L 73.3284,144.985 L 73.336,145.029 L 73.3473,145.071 L 73.3623,145.113 L 73.3807,145.153 L 73.4026,145.192 L 73.4277,145.228 L 73.4558,145.262 L 73.4868,145.294 L 73.5204,145.323 L 73.5563,145.349 L 73.5944,145.372 L 73.6342,145.391 L 73.6756,145.407 L 73.7181,145.419 L 73.7616,145.427 L 73.8056,145.432 L 73.8499,145.433 L 73.8941,145.43 L 73.9379,145.424 L 73.9809,145.413 L 74.0229,145.399 L 74.0636,145.382 L 74.1025,145.361 L 74.1396,145.336 L 74.1744,145.309 L 74.2067,145.279 L 74.2363,145.246 L 74.2629,145.21 L 74.2864,145.173 L 74.3066,145.133 L 74.3233,145.092 L 74.3365,145.05 L 74.3459,145.007 L 74.3516,144.963 L 74.3535,144.919 L 73.8388,144.919 Z" style="fill:#000000;fill-rule:evenodd;fill-opacity:1;stroke:#000000;stroke-width:0.0px;stroke-linecap:butt;stroke-linejoin:miter;stroke-opacity:1;"/>
<path d="M 141.547,129.29 L 141.545,129.246 L 141.539,129.202 L 141.53,129.158 L 141.517,129.116 L 141.5,129.075 L 141.48,129.036 L 141.456,128.998 L 141.429,128.963 L 141.4,128.93 L 141.368,128.9 L 141.333,128.872 L 141.296,128.848 L 141.257,128.827 L 141.216,128.809 L 141.174,128.795 L 141.131,128.785 L 141.087,128.778 L 141.043,128.775 L 140.999,128.776 L 140.955,128.781 L 140.911,128.789 L 140.869,128.802 L 140.827,128.818 L 140.788,128.837 L 140.75,128.86 L 140.714,128.885 L 140.68,128.914 L 140.649,128.946 L 140.621,128.98 L 140.596,129.017 L 140.574,129.055 L 140.555,129.095 L 140.541,129.137 L 140.529,129.18 L 140.522,129.224 L 140.518,129.268 L 140.518,129.312 L 140.522,129.356 L 140.529,129.4 L 140.541,129.443 L 140.555,129.484 L 140.574,129.524 L 140.596,129.563 L 140.621,129.599 L 140.649,129.634 L 140.68,129.665 L 140.714,129.694 L 140.75,129.72 L 140.788,129.743 L 140.827,129.762 L 140.869,129.778 L 140.911,129.79 L 140.955,129.799 L 140.999,129.803 L 141.043,129.804 L 141.087,129.802 L 141.131,129.795 L 141.174,129.784 L 141.216,129.77 L 141.257,129.753 L 141.296,129.732 L 141.333,129.708 L 141.368,129.68 L 141.4,129.65 L 141.429,129.617 L 141.456,129.581 L 141.48,129.544 L 141.5,129.505 L 141.517,129.464 L 141.53,129.421 L 141.539,129.378 L 141.545,129.334 L 141.547,129.29 L 141.032,129.29 Z" style="fill:#000000;fill-rule:evenodd;fill-opacity:1;stroke:#000000;stroke-width:0.0px;stroke-linecap:butt;stroke-linejoin:miter;stroke-opacity:1;"/>
<path class="bond-0 atom-0 atom-1" d="M 348.557,137.104 L 358.075,137.104" style="fill:none;fill-rule:evenodd;stroke:#FF0000;stroke-width:2.0px;stroke-linecap:butt;stroke-linejoin:miter;stroke-opacity:1"/>
<path class="bond-0 atom-0 atom-1" d="M 358.075,137.104 L 367.592,137.104" style="fill:none;fill-rule:evenodd;stroke:#33CCCC;stroke-width:2.0px;stroke-linecap:butt;stroke-linejoin:miter;stroke-opacity:1"/>
<path class="atom-0" d="M 341.223 137.125 Q 341.223 135.375, 342.087 134.397 Q 342.952 133.419, 344.568 133.419 Q 346.184 133.419, 347.049 134.397 Q 347.914 135.375, 347.914 137.125 Q 347.914 138.895, 347.039 139.904 Q 346.164 140.903, 344.568 140.903 Q 342.962 140.903, 342.087 139.904 Q 341.223 138.906, 341.223 137.125 M 344.568 140.079 Q 345.68 140.079, 346.277 139.338 Q 346.884 138.587, 346.884 137.125 Q 346.884 135.694, 346.277 134.973 Q 345.68 134.243, 344.568 134.243 Q 343.456 134.243, 342.849 134.963 Q 342.252 135.684, 342.252 137.125 Q 342.252 138.597, 342.849 139.338 Q 343.456 140.079, 344.568 140.079 " fill="#FF0000"/>
<path class="atom-0" d="M 348.253 134.609 L 350.747 134.609 L 350.747 135.152 L 348.253 135.152 L 348.253 134.609 " fill="#FF0000"/>
<path class="atom-1" d="M 368.136 133.46 L 372.47 133.46 L 372.47 134.294 L 369.114 134.294 L 369.114 136.507 L 372.099 136.507 L 372.099 137.351 L 369.114 137.351 L 369.114 140.748 L 368.136 140.748 L 368.136 133.46 " fill="#33CCCC"/>
<path class="bond-0 atom-0 atom-1" d="M 522.545,143.337 L 538.978,133.85" style="fill:none;fill-rule:evenodd;stroke:#FF7F00;stroke-width:2.0px;stroke-linecap:butt;stroke-linejoin:miter;stroke-opacity:1"/>
<path class="bond-0 atom-0 atom-1" d="M 519.972,138.88 L 536.404,129.392" style="fill:none;fill-rule:evenodd;stroke:#FF7F00;stroke-width:2.0px;stroke-linecap:butt;stroke-linejoin:miter;stroke-opacity:1"/>
<path class="bond-1 atom-1 atom-2" d="M 543.545,131.67 L 551.543,136.288" style="fill:none;fill-rule:evenodd;stroke:#FF7F00;stroke-width:2.0px;stroke-linecap:butt;stroke-linejoin:miter;stroke-opacity:1"/>
<path class="bond-1 atom-1 atom-2" d="M 551.543,136.288 L 559.54,140.905" style="fill:none;fill-rule:evenodd;stroke:#0000FF;stroke-width:2.0px;stroke-linecap:butt;stroke-linejoin:miter;stroke-opacity:1"/>
<path class="bond-2 atom-2 atom-3" d="M 570.053,138.671 L 576.22,135.111" style="fill:none;fill-rule:evenodd;stroke:#0000FF;stroke-width:2.0px;stroke-linecap:butt;stroke-linejoin:miter;stroke-opacity:1"/>
<path class="bond-2 atom-2 atom-3" d="M 576.22,135.111 L 582.387,131.55" style="fill:none;fill-rule:evenodd;stroke:#FF7F00;stroke-width:2.0px;stroke-linecap:butt;stroke-linejoin:miter;stroke-opacity:1"/>
<path class="bond-3 atom-3 atom-4" d="M 588.118,131.67 L 595.825,136.12" style="fill:none;fill-rule:evenodd;stroke:#FF7F00;stroke-width:2.0px;stroke-linecap:butt;stroke-linejoin:miter;stroke-opacity:1"/>
<path class="bond-3 atom-3 atom-4" d="M 595.825,136.12 L 603.532,140.57" style="fill:none;fill-rule:evenodd;stroke:#FF0000;stroke-width:2.0px;stroke-linecap:butt;stroke-linejoin:miter;stroke-opacity:1"/>
<path class="bond-3 atom-3 atom-4" d="M 587.857,137.463 L 593.252,140.577" style="fill:none;fill-rule:evenodd;stroke:#FF7F00;stroke-width:2.0px;stroke-linecap:butt;stroke-linejoin:miter;stroke-opacity:1"/>
<path class="bond-3 atom-3 atom-4" d="M 593.252,140.577 L 598.647,143.692" style="fill:none;fill-rule:evenodd;stroke:#FF0000;stroke-width:2.0px;stroke-linecap:butt;stroke-linejoin:miter;stroke-opacity:1"/>
<path class="bond-4 atom-4 atom-5" d="M 615.026,138.441 L 620.994,134.995" style="fill:none;fill-rule:evenodd;stroke:#FF0000;stroke-width:2.0px;stroke-linecap:butt;stroke-linejoin:miter;stroke-opacity:1"/>
<path class="bond-4 atom-4 atom-5" d="M 620.994,134.995 L 626.961,131.55" style="fill:none;fill-rule:evenodd;stroke:#CCCC00;stroke-width:2.0px;stroke-linecap:butt;stroke-linejoin:miter;stroke-opacity:1"/>
<path class="bond-5 atom-5 atom-6" d="M 632.702,131.676 L 642.356,137.25" style="fill:none;fill-rule:evenodd;stroke:#CCCC00;stroke-width:2.0px;stroke-linecap:butt;stroke-linejoin:miter;stroke-opacity:1"/>
<path class="bond-5 atom-5 atom-6" d="M 642.356,137.25 L 652.009,142.823" style="fill:none;fill-rule:evenodd;stroke:#000000;stroke-width:2.0px;stroke-linecap:butt;stroke-linejoin:miter;stroke-opacity:1"/>
<path class="bond-6 atom-6 atom-7" d="M 652.009,142.823 L 661.667,137.247" style="fill:none;fill-rule:evenodd;stroke:#000000;stroke-width:2.0px;stroke-linecap:butt;stroke-linejoin:miter;stroke-opacity:1"/>
<path class="bond-6 atom-6 atom-7" d="M 661.667,137.247 L 671.326,131.67" style="fill:none;fill-rule:evenodd;stroke:#FF7F00;stroke-width:2.0px;stroke-linecap:butt;stroke-linejoin:miter;stroke-opacity:1"/>
<path class="bond-6 atom-6 atom-7" d="M 652.333,136.693 L 659.094,132.789" style="fill:none;fill-rule:evenodd;stroke:#000000;stroke-width:2.0px;stroke-linecap:butt;stroke-linejoin:miter;stroke-opacity:1"/>
<path class="bond-6 atom-6 atom-7" d="M 659.094,132.789 L 665.855,128.886" style="fill:none;fill-rule:evenodd;stroke:#FF7F00;stroke-width:2.0px;stroke-linecap:butt;stroke-linejoin:miter;stroke-opacity:1"/>
<path class="bond-7 atom-7 atom-8" d="M 677.265,131.67 L 686.401,136.945" style="fill:none;fill-rule:evenodd;stroke:#FF7F00;stroke-width:2.0px;stroke-linecap:butt;stroke-linejoin:miter;stroke-opacity:1"/>
<path class="bond-7 atom-7 atom-8" d="M 686.401,136.945 L 695.536,142.219" style="fill:none;fill-rule:evenodd;stroke:#A01EEF;stroke-width:2.0px;stroke-linecap:butt;stroke-linejoin:miter;stroke-opacity:1"/>
<path class="atom-0" d="M 509.384 139.179 L 510.373 139.179 L 510.373 142.277 L 514.099 142.277 L 514.099 139.179 L 515.087 139.179 L 515.087 146.467 L 514.099 146.467 L 514.099 143.101 L 510.373 143.101 L 510.373 146.467 L 509.384 146.467 L 509.384 139.179 " fill="#FF7F00"/>
<path class="atom-0" d="M 518.113 139.179 Q 519.359 139.179, 519.987 139.745 Q 520.615 140.301, 520.615 141.32 Q 520.615 142.329, 519.966 142.905 Q 519.328 143.472, 518.113 143.472 L 516.95 143.472 L 516.95 146.467 L 515.962 146.467 L 515.962 139.179 L 518.113 139.179 M 518.113 142.648 Q 518.824 142.648, 519.205 142.308 Q 519.586 141.969, 519.586 141.32 Q 519.586 140.672, 519.205 140.342 Q 518.834 140.002, 518.113 140.002 L 516.95 140.002 L 516.95 142.648 L 518.113 142.648 " fill="#FF7F00"/>
<path class="atom-1" d="M 540.4 126.312 Q 541.646 126.312, 542.274 126.878 Q 542.902 127.434, 542.902 128.453 Q 542.902 129.462, 542.253 130.038 Q 541.615 130.604, 540.4 130.604 L 539.237 130.604 L 539.237 133.6 L 538.249 133.6 L 538.249 126.312 L 540.4 126.312 M 540.4 129.781 Q 541.111 129.781, 541.491 129.441 Q 541.872 129.101, 541.872 128.453 Q 541.872 127.804, 541.491 127.475 Q 541.121 127.135, 540.4 127.135 L 539.237 127.135 L 539.237 129.781 L 540.4 129.781 " fill="#FF7F00"/>
<path class="atom-2" d="M 561.251 139.179 L 563.639 143.039 Q 563.876 143.42, 564.257 144.11 Q 564.638 144.799, 564.658 144.841 L 564.658 139.179 L 565.626 139.179 L 565.626 146.467 L 564.627 146.467 L 562.064 142.247 Q 561.766 141.752, 561.447 141.186 Q 561.138 140.62, 561.045 140.445 L 561.045 146.467 L 560.098 146.467 L 560.098 139.179 L 561.251 139.179 " fill="#0000FF"/>
<path class="atom-2" d="M 566.237 140.493 L 567.521 140.493 L 567.521 139.141 L 568.092 139.141 L 568.092 140.493 L 569.41 140.493 L 569.41 140.982 L 568.092 140.982 L 568.092 142.341 L 567.521 142.341 L 567.521 140.982 L 566.237 140.982 L 566.237 140.493 " fill="#0000FF"/>
<path class="atom-2" d="M 560.011 147.196 L 560.999 147.196 L 560.999 150.294 L 564.725 150.294 L 564.725 147.196 L 565.713 147.196 L 565.713 154.484 L 564.725 154.484 L 564.725 151.118 L 560.999 151.118 L 560.999 154.484 L 560.011 154.484 L 560.011 147.196 " fill="#0000FF"/>
<path class="atom-2" d="M 566.067 154.228 Q 566.243 153.773, 566.664 153.522 Q 567.086 153.263, 567.67 153.263 Q 568.397 153.263, 568.805 153.657 Q 569.212 154.051, 569.212 154.751 Q 569.212 155.465, 568.682 156.13 Q 568.159 156.796, 567.072 157.584 L 569.294 157.584 L 569.294 158.128 L 566.053 158.128 L 566.053 157.673 Q 566.95 157.034, 567.48 156.558 Q 568.016 156.083, 568.275 155.655 Q 568.533 155.227, 568.533 154.785 Q 568.533 154.323, 568.302 154.065 Q 568.071 153.807, 567.67 153.807 Q 567.283 153.807, 567.025 153.963 Q 566.766 154.119, 566.583 154.466 L 566.067 154.228 " fill="#0000FF"/>
<path class="atom-3" d="M 584.974 126.312 Q 586.219 126.312, 586.847 126.878 Q 587.475 127.434, 587.475 128.453 Q 587.475 129.462, 586.827 130.038 Q 586.188 130.604, 584.974 130.604 L 583.811 130.604 L 583.811 133.6 L 582.822 133.6 L 582.822 126.312 L 584.974 126.312 M 584.974 129.781 Q 585.684 129.781, 586.065 129.441 Q 586.446 129.101, 586.446 128.453 Q 586.446 127.804, 586.065 127.475 Q 585.694 127.135, 584.974 127.135 L 583.811 127.135 L 583.811 129.781 L 584.974 129.781 " fill="#FF7F00"/>
<path class="atom-3" d="M 588.087 127.625 L 589.371 127.625 L 589.371 126.273 L 589.941 126.273 L 589.941 127.625 L 591.259 127.625 L 591.259 128.115 L 589.941 128.115 L 589.941 129.473 L 589.371 129.473 L 589.371 128.115 L 588.087 128.115 L 588.087 127.625 " fill="#FF7F00"/>
<path class="atom-4" d="M 604.09 142.844 Q 604.09 141.094, 604.955 140.116 Q 605.819 139.138, 607.435 139.138 Q 609.052 139.138, 609.916 140.116 Q 610.781 141.094, 610.781 142.844 Q 610.781 144.614, 609.906 145.623 Q 609.031 146.621, 607.435 146.621 Q 605.83 146.621, 604.955 145.623 Q 604.09 144.624, 604.09 142.844 M 607.435 145.798 Q 608.547 145.798, 609.144 145.057 Q 609.752 144.305, 609.752 142.844 Q 609.752 141.413, 609.144 140.692 Q 608.547 139.961, 607.435 139.961 Q 606.324 139.961, 605.716 140.682 Q 605.119 141.402, 605.119 142.844 Q 605.119 144.316, 605.716 145.057 Q 606.324 145.798, 607.435 145.798 " fill="#FF0000"/>
<path class="atom-4" d="M 611.392 140.436 L 612.676 140.436 L 612.676 139.084 L 613.247 139.084 L 613.247 140.436 L 614.565 140.436 L 614.565 140.925 L 613.247 140.925 L 613.247 142.284 L 612.676 142.284 L 612.676 140.925 L 611.392 140.925 L 611.392 140.436 " fill="#FF0000"/>
<path class="atom-5" d="M 627.663 132.457 Q 627.746 132.488, 628.085 132.632 Q 628.425 132.776, 628.796 132.869 Q 629.177 132.951, 629.547 132.951 Q 630.237 132.951, 630.638 132.622 Q 631.04 132.282, 631.04 131.695 Q 631.04 131.294, 630.834 131.047 Q 630.638 130.8, 630.33 130.666 Q 630.021 130.532, 629.506 130.378 Q 628.858 130.182, 628.466 129.997 Q 628.085 129.812, 627.808 129.42 Q 627.54 129.029, 627.54 128.37 Q 627.54 127.454, 628.158 126.888 Q 628.785 126.322, 630.021 126.322 Q 630.865 126.322, 631.822 126.723 L 631.585 127.516 Q 630.71 127.156, 630.052 127.156 Q 629.341 127.156, 628.95 127.454 Q 628.559 127.743, 628.569 128.247 Q 628.569 128.638, 628.765 128.875 Q 628.971 129.112, 629.259 129.245 Q 629.557 129.379, 630.052 129.534 Q 630.71 129.74, 631.102 129.945 Q 631.493 130.151, 631.771 130.573 Q 632.059 130.985, 632.059 131.695 Q 632.059 132.704, 631.379 133.25 Q 630.71 133.785, 629.588 133.785 Q 628.94 133.785, 628.446 133.641 Q 627.962 133.507, 627.385 133.27 L 627.663 132.457 " fill="#CCCC00"/>
<path class="atom-7" d="M 674.121 126.312 Q 675.366 126.312, 675.994 126.878 Q 676.622 127.434, 676.622 128.453 Q 676.622 129.462, 675.974 130.038 Q 675.335 130.604, 674.121 130.604 L 672.957 130.604 L 672.957 133.6 L 671.969 133.6 L 671.969 126.312 L 674.121 126.312 M 674.121 129.781 Q 674.831 129.781, 675.212 129.441 Q 675.593 129.101, 675.593 128.453 Q 675.593 127.804, 675.212 127.475 Q 674.841 127.135, 674.121 127.135 L 672.957 127.135 L 672.957 129.781 L 674.121 129.781 " fill="#FF7F00"/>
<path class="atom-7" d="M 671.444 118.295 L 672.432 118.295 L 672.432 121.393 L 676.159 121.393 L 676.159 118.295 L 677.147 118.295 L 677.147 125.583 L 676.159 125.583 L 676.159 122.217 L 672.432 122.217 L 672.432 125.583 L 671.444 125.583 L 671.444 118.295 " fill="#FF7F00"/>
<path class="atom-7" d="M 677.5 125.327 Q 677.677 124.872, 678.098 124.621 Q 678.519 124.363, 679.104 124.363 Q 679.831 124.363, 680.238 124.757 Q 680.646 125.151, 680.646 125.85 Q 680.646 126.564, 680.116 127.23 Q 679.593 127.895, 678.506 128.683 L 680.727 128.683 L 680.727 129.227 L 677.487 129.227 L 677.487 128.772 Q 678.384 128.133, 678.913 127.658 Q 679.45 127.182, 679.708 126.754 Q 679.967 126.326, 679.967 125.884 Q 679.967 125.422, 679.736 125.164 Q 679.505 124.906, 679.104 124.906 Q 678.716 124.906, 678.458 125.062 Q 678.2 125.219, 678.017 125.565 L 677.5 125.327 " fill="#FF7F00"/>
<path class="atom-8" d="M 696.093 139.164 L 697.071 139.164 L 697.071 146.482 L 696.093 146.482 L 696.093 139.164 " fill="#A01EEF"/>
<path d="M 585.663,125.501 L 585.661,125.457 L 585.656,125.413 L 585.646,125.37 L 585.633,125.328 L 585.616,125.287 L 585.596,125.247 L 585.573,125.21 L 585.546,125.174 L 585.517,125.141 L 585.484,125.111 L 585.449,125.084 L 585.412,125.059 L 585.373,125.038 L 585.333,125.021 L 585.291,125.007 L 585.248,124.996 L 585.204,124.99 L 585.16,124.987 L 585.116,124.988 L 585.071,124.993 L 585.028,125.001 L 584.985,125.013 L 584.944,125.029 L 584.904,125.048 L 584.866,125.071 L 584.83,125.097 L 584.797,125.126 L 584.766,125.158 L 584.738,125.192 L 584.712,125.228 L 584.691,125.267 L 584.672,125.307 L 584.657,125.349 L 584.646,125.392 L 584.638,125.435 L 584.634,125.479 L 584.634,125.524 L 584.638,125.568 L 584.646,125.611 L 584.657,125.654 L 584.672,125.696 L 584.691,125.736 L 584.712,125.775 L 584.738,125.811 L 584.766,125.845 L 584.797,125.877 L 584.83,125.906 L 584.866,125.932 L 584.904,125.954 L 584.944,125.974 L 584.985,125.99 L 585.028,126.002 L 585.071,126.01 L 585.116,126.015 L 585.16,126.016 L 585.204,126.013 L 585.248,126.006 L 585.291,125.996 L 585.333,125.982 L 585.373,125.964 L 585.412,125.943 L 585.449,125.919 L 585.484,125.892 L 585.517,125.861 L 585.546,125.828 L 585.573,125.793 L 585.596,125.756 L 585.616,125.716 L 585.633,125.675 L 585.646,125.633 L 585.656,125.59 L 585.661,125.546 L 585.663,125.501 L 585.149,125.501 Z" style="fill:#000000;fill-rule:evenodd;fill-opacity:1;stroke:#000000;stroke-width:0.0px;stroke-linecap:butt;stroke-linejoin:miter;stroke-opacity:1;"/>
<path class="bond-0 atom-0 atom-1" d="M 95.6691,402.321 L 88.0606,394.713" style="fill:none;fill-rule:evenodd;stroke:#CCCC00;stroke-width:2.0px;stroke-linecap:butt;stroke-linejoin:miter;stroke-opacity:1"/>
<path class="bond-0 atom-0 atom-1" d="M 88.0606,394.713 L 80.4521,387.104" style="fill:none;fill-rule:evenodd;stroke:#000000;stroke-width:2.0px;stroke-linecap:butt;stroke-linejoin:miter;stroke-opacity:1"/>
<path class="bond-4 atom-3 atom-0" d="M 116.846,387.104 L 109.238,394.713" style="fill:none;fill-rule:evenodd;stroke:#000000;stroke-width:2.0px;stroke-linecap:butt;stroke-linejoin:miter;stroke-opacity:1"/>
<path class="bond-4 atom-3 atom-0" d="M 109.238,394.713 L 101.629,402.321" style="fill:none;fill-rule:evenodd;stroke:#CCCC00;stroke-width:2.0px;stroke-linecap:butt;stroke-linejoin:miter;stroke-opacity:1"/>
<path class="bond-1 atom-1 atom-2" d="M 80.4521,387.104 L 87.847,379.709" style="fill:none;fill-rule:evenodd;stroke:#000000;stroke-width:2.0px;stroke-linecap:butt;stroke-linejoin:miter;stroke-opacity:1"/>
<path class="bond-1 atom-1 atom-2" d="M 87.847,379.709 L 95.2419,372.314" style="fill:none;fill-rule:evenodd;stroke:#0000FF;stroke-width:2.0px;stroke-linecap:butt;stroke-linejoin:miter;stroke-opacity:1"/>
<path class="bond-1 atom-1 atom-2" d="M 86.31,388.525 L 91.4864,383.349" style="fill:none;fill-rule:evenodd;stroke:#000000;stroke-width:2.0px;stroke-linecap:butt;stroke-linejoin:miter;stroke-opacity:1"/>
<path class="bond-1 atom-1 atom-2" d="M 91.4864,383.349 L 96.6628,378.172" style="fill:none;fill-rule:evenodd;stroke:#0000FF;stroke-width:2.0px;stroke-linecap:butt;stroke-linejoin:miter;stroke-opacity:1"/>
<path class="bond-2 atom-2 atom-3" d="M 102.056,372.314 L 109.451,379.709" style="fill:none;fill-rule:evenodd;stroke:#0000FF;stroke-width:2.0px;stroke-linecap:butt;stroke-linejoin:miter;stroke-opacity:1"/>
<path class="bond-2 atom-2 atom-3" d="M 109.451,379.709 L 116.846,387.104" style="fill:none;fill-rule:evenodd;stroke:#000000;stroke-width:2.0px;stroke-linecap:butt;stroke-linejoin:miter;stroke-opacity:1"/>
<path class="bond-3 atom-3 atom-4" d="M 116.846,387.104 L 128.01,388.391 L 128.01,385.817 Z" style="fill:#000000;fill-rule:evenodd;fill-opacity:1;stroke:#000000;stroke-width:2.0px;stroke-linecap:butt;stroke-linejoin:miter;stroke-opacity:1;"/>
<path class="bond-3 atom-3 atom-4" d="M 128.01,388.391 L 139.173,384.531 L 139.173,389.678 Z" style="fill:#0000FF;fill-rule:evenodd;fill-opacity:1;stroke:#0000FF;stroke-width:2.0px;stroke-linecap:butt;stroke-linejoin:miter;stroke-opacity:1;"/>
<path class="bond-3 atom-3 atom-4" d="M 128.01,388.391 L 128.01,385.817 L 139.173,384.531 Z" style="fill:#0000FF;fill-rule:evenodd;fill-opacity:1;stroke:#0000FF;stroke-width:2.0px;stroke-linecap:butt;stroke-linejoin:miter;stroke-opacity:1;"/>
<path class="atom-0" d="M 96.5904 407.803 Q 96.6727 407.834, 97.0124 407.978 Q 97.3521 408.122, 97.7227 408.214 Q 98.1036 408.297, 98.4741 408.297 Q 99.1638 408.297, 99.5653 407.967 Q 99.9667 407.628, 99.9667 407.041 Q 99.9667 406.639, 99.7609 406.392 Q 99.5653 406.145, 99.2565 406.012 Q 98.9477 405.878, 98.433 405.723 Q 97.7845 405.528, 97.3933 405.342 Q 97.0124 405.157, 96.7345 404.766 Q 96.4668 404.375, 96.4668 403.716 Q 96.4668 402.8, 97.0845 402.234 Q 97.7124 401.668, 98.9477 401.668 Q 99.7917 401.668, 100.749 402.069 L 100.512 402.862 Q 99.6373 402.501, 98.9785 402.501 Q 98.2683 402.501, 97.8771 402.8 Q 97.4859 403.088, 97.4962 403.592 Q 97.4962 403.984, 97.6918 404.22 Q 97.8977 404.457, 98.1859 404.591 Q 98.4844 404.725, 98.9785 404.879 Q 99.6373 405.085, 100.029 405.291 Q 100.42 405.497, 100.698 405.919 Q 100.986 406.331, 100.986 407.041 Q 100.986 408.05, 100.306 408.595 Q 99.6373 409.131, 98.5153 409.131 Q 97.8668 409.131, 97.3727 408.986 Q 96.8889 408.853, 96.3124 408.616 L 96.5904 407.803 " fill="#CCCC00"/>
<path class="atom-2" d="M 97.0382 365.263 L 99.4263 369.123 Q 99.6631 369.504, 100.044 370.194 Q 100.425 370.884, 100.445 370.925 L 100.445 365.263 L 101.413 365.263 L 101.413 372.551 L 100.415 372.551 L 97.8514 368.331 Q 97.5528 367.837, 97.2337 367.27 Q 96.9249 366.704, 96.8323 366.529 L 96.8323 372.551 L 95.8852 372.551 L 95.8852 365.263 L 97.0382 365.263 " fill="#0000FF"/>
<path class="atom-2" d="M 95.7977 357.246 L 96.786 357.246 L 96.786 360.345 L 100.512 360.345 L 100.512 357.246 L 101.501 357.246 L 101.501 364.534 L 100.512 364.534 L 100.512 361.168 L 96.786 361.168 L 96.786 364.534 L 95.7977 364.534 L 95.7977 357.246 " fill="#0000FF"/>
<path class="atom-2" d="M 102.112 358.56 L 103.396 358.56 L 103.396 357.208 L 103.967 357.208 L 103.967 358.56 L 105.285 358.56 L 105.285 359.049 L 103.967 359.049 L 103.967 360.408 L 103.396 360.408 L 103.396 359.049 L 102.112 359.049 L 102.112 358.56 " fill="#0000FF"/>
<path class="atom-4" d="M 140.97 383.46 L 143.358 387.32 Q 143.595 387.701, 143.975 388.391 Q 144.356 389.081, 144.377 389.122 L 144.377 383.46 L 145.345 383.46 L 145.345 390.748 L 144.346 390.748 L 141.783 386.528 Q 141.484 386.034, 141.165 385.468 Q 140.856 384.901, 140.764 384.726 L 140.764 390.748 L 139.817 390.748 L 139.817 383.46 L 140.97 383.46 " fill="#0000FF"/>
<path class="atom-4" d="M 146.22 383.46 L 147.208 383.46 L 147.208 386.559 L 150.934 386.559 L 150.934 383.46 L 151.922 383.46 L 151.922 390.748 L 150.934 390.748 L 150.934 387.382 L 147.208 387.382 L 147.208 390.748 L 146.22 390.748 L 146.22 383.46 " fill="#0000FF"/>
<path class="atom-4" d="M 154.518 391.858 Q 154.986 391.994, 155.211 392.3 Q 155.442 392.599, 155.442 393.074 Q 155.442 393.482, 155.238 393.801 Q 155.034 394.114, 154.66 394.29 Q 154.287 394.46, 153.797 394.46 Q 153.281 394.46, 152.894 394.284 Q 152.513 394.1, 152.208 393.733 L 152.595 393.339 Q 152.894 393.665, 153.145 393.794 Q 153.397 393.917, 153.797 393.917 Q 154.232 393.917, 154.497 393.686 Q 154.762 393.448, 154.762 393.067 Q 154.762 392.578, 154.484 392.361 Q 154.212 392.137, 153.621 392.137 L 153.274 392.137 L 153.274 391.647 L 153.58 391.647 Q 154.103 391.641, 154.382 391.416 Q 154.66 391.186, 154.66 390.757 Q 154.66 390.445, 154.429 390.262 Q 154.198 390.071, 153.804 390.071 Q 153.403 390.071, 153.152 390.214 Q 152.907 390.357, 152.717 390.717 L 152.248 390.465 Q 152.418 390.065, 152.826 389.8 Q 153.234 389.528, 153.804 389.528 Q 154.511 389.528, 154.925 389.861 Q 155.34 390.194, 155.34 390.757 Q 155.34 391.145, 155.129 391.423 Q 154.918 391.702, 154.518 391.858 " fill="#0000FF"/>
<path class="atom-4" d="M 152.534 384.774 L 153.818 384.774 L 153.818 383.422 L 154.389 383.422 L 154.389 384.774 L 155.707 384.774 L 155.707 385.263 L 154.389 385.263 L 154.389 386.622 L 153.818 386.622 L 153.818 385.263 L 152.534 385.263 L 152.534 384.774 " fill="#0000FF"/>
<path d="M 77.8786,387.104 L 77.8767,387.06 L 77.871,387.016 L 77.8616,386.973 L 77.8484,386.93 L 77.8317,386.889 L 77.8115,386.85 L 77.788,386.813 L 77.7614,386.777 L 77.7318,386.744 L 77.6995,386.714 L 77.6647,386.687 L 77.6277,386.662 L 77.5887,386.641 L 77.548,386.624 L 77.506,386.61 L 77.463,386.599 L 77.4192,386.593 L 77.375,386.59 L 77.3307,386.591 L 77.2867,386.595 L 77.2433,386.604 L 77.2007,386.616 L 77.1593,386.632 L 77.1195,386.651 L 77.0815,386.674 L 77.0455,386.7 L 77.0119,386.729 L 76.981,386.76 L 76.9528,386.795 L 76.9277,386.831 L 76.9059,386.87 L 76.8874,386.91 L 76.8724,386.952 L 76.8611,386.994 L 76.8535,387.038 L 76.8497,387.082 L 76.8497,387.126 L 76.8535,387.17 L 76.8611,387.214 L 76.8724,387.257 L 76.8874,387.299 L 76.9059,387.339 L 76.9277,387.377 L 76.9528,387.414 L 76.981,387.448 L 77.0119,387.48 L 77.0455,387.509 L 77.0815,387.534 L 77.1195,387.557 L 77.1593,387.576 L 77.2007,387.592 L 77.2433,387.605 L 77.2867,387.613 L 77.3307,387.618 L 77.375,387.619 L 77.4192,387.616 L 77.463,387.609 L 77.506,387.599 L 77.548,387.585 L 77.5887,387.567 L 77.6277,387.546 L 77.6647,387.522 L 77.6995,387.495 L 77.7318,387.464 L 77.7614,387.431 L 77.788,387.396 L 77.8115,387.358 L 77.8317,387.319 L 77.8484,387.278 L 77.8616,387.236 L 77.871,387.192 L 77.8767,387.148 L 77.8786,387.104 L 77.3639,387.104 Z" style="fill:#000000;fill-rule:evenodd;fill-opacity:1;stroke:#000000;stroke-width:0.0px;stroke-linecap:butt;stroke-linejoin:miter;stroke-opacity:1;"/>
<path class="bond-0 atom-0 atom-1" d="M 341.774,390.54 L 348.835,386.463" style="fill:none;fill-rule:evenodd;stroke:#0000FF;stroke-width:2.0px;stroke-linecap:butt;stroke-linejoin:miter;stroke-opacity:1"/>
<path class="bond-0 atom-0 atom-1" d="M 348.835,386.463 L 355.896,382.386" style="fill:none;fill-rule:evenodd;stroke:#CCCC00;stroke-width:2.0px;stroke-linecap:butt;stroke-linejoin:miter;stroke-opacity:1"/>
<path class="bond-0 atom-0 atom-1" d="M 339.201,386.082 L 346.262,382.006" style="fill:none;fill-rule:evenodd;stroke:#0000FF;stroke-width:2.0px;stroke-linecap:butt;stroke-linejoin:miter;stroke-opacity:1"/>
<path class="bond-0 atom-0 atom-1" d="M 346.262,382.006 L 353.323,377.929" style="fill:none;fill-rule:evenodd;stroke:#CCCC00;stroke-width:2.0px;stroke-linecap:butt;stroke-linejoin:miter;stroke-opacity:1"/>
<path class="bond-1 atom-1 atom-2" d="M 360.415,380.247 L 369.546,385.518" style="fill:none;fill-rule:evenodd;stroke:#CCCC00;stroke-width:2.0px;stroke-linecap:butt;stroke-linejoin:miter;stroke-opacity:1"/>
<path class="bond-1 atom-1 atom-2" d="M 369.546,385.518 L 378.676,390.789" style="fill:none;fill-rule:evenodd;stroke:#A01EEF;stroke-width:2.0px;stroke-linecap:butt;stroke-linejoin:miter;stroke-opacity:1"/>
<path class="atom-0" d="M 333.538 387.749 L 335.926 391.609 Q 336.163 391.99, 336.544 392.68 Q 336.924 393.37, 336.945 393.411 L 336.945 387.749 L 337.913 387.749 L 337.913 395.037 L 336.914 395.037 L 334.351 390.817 Q 334.052 390.323, 333.733 389.757 Q 333.424 389.19, 333.332 389.015 L 333.332 395.037 L 332.385 395.037 L 332.385 387.749 L 333.538 387.749 " fill="#0000FF"/>
<path class="atom-0" d="M 338.252 388.954 L 340.746 388.954 L 340.746 389.498 L 338.252 389.498 L 338.252 388.954 " fill="#0000FF"/>
<path class="atom-1" d="M 355.377 381.027 Q 355.459 381.058, 355.799 381.202 Q 356.138 381.347, 356.509 381.439 Q 356.89 381.522, 357.26 381.522 Q 357.95 381.522, 358.352 381.192 Q 358.753 380.852, 358.753 380.266 Q 358.753 379.864, 358.547 379.617 Q 358.352 379.37, 358.043 379.236 Q 357.734 379.103, 357.219 378.948 Q 356.571 378.753, 356.18 378.567 Q 355.799 378.382, 355.521 377.991 Q 355.253 377.6, 355.253 376.941 Q 355.253 376.025, 355.871 375.458 Q 356.499 374.892, 357.734 374.892 Q 358.578 374.892, 359.535 375.294 L 359.299 376.086 Q 358.424 375.726, 357.765 375.726 Q 357.055 375.726, 356.663 376.025 Q 356.272 376.313, 356.283 376.817 Q 356.283 377.208, 356.478 377.445 Q 356.684 377.682, 356.972 377.816 Q 357.271 377.95, 357.765 378.104 Q 358.424 378.31, 358.815 378.516 Q 359.206 378.722, 359.484 379.144 Q 359.772 379.555, 359.772 380.266 Q 359.772 381.274, 359.093 381.82 Q 358.424 382.355, 357.302 382.355 Q 356.653 382.355, 356.159 382.211 Q 355.675 382.077, 355.099 381.841 L 355.377 381.027 " fill="#CCCC00"/>
<path class="atom-2" d="M 379.233 387.734 L 380.211 387.734 L 380.211 395.053 L 379.233 395.053 L 379.233 387.734 " fill="#A01EEF"/>
<path d="M 357.95,374.12 L 357.948,374.076 L 357.943,374.032 L 357.933,373.989 L 357.92,373.947 L 357.903,373.906 L 357.883,373.866 L 357.86,373.829 L 357.833,373.793 L 357.803,373.76 L 357.771,373.73 L 357.736,373.703 L 357.699,373.678 L 357.66,373.657 L 357.62,373.64 L 357.578,373.626 L 357.534,373.615 L 357.491,373.609 L 357.447,373.606 L 357.402,373.607 L 357.358,373.611 L 357.315,373.62 L 357.272,373.632 L 357.231,373.648 L 357.191,373.667 L 357.153,373.69 L 357.117,373.716 L 357.083,373.745 L 357.052,373.776 L 357.024,373.811 L 356.999,373.847 L 356.977,373.886 L 356.959,373.926 L 356.944,373.968 L 356.933,374.01 L 356.925,374.054 L 356.921,374.098 L 356.921,374.142 L 356.925,374.187 L 356.933,374.23 L 356.944,374.273 L 356.959,374.315 L 356.977,374.355 L 356.999,374.393 L 357.024,374.43 L 357.052,374.464 L 357.083,374.496 L 357.117,374.525 L 357.153,374.551 L 357.191,374.573 L 357.231,374.593 L 357.272,374.608 L 357.315,374.621 L 357.358,374.629 L 357.402,374.634 L 357.447,374.635 L 357.491,374.632 L 357.534,374.625 L 357.578,374.615 L 357.62,374.601 L 357.66,374.583 L 357.699,374.562 L 357.736,374.538 L 357.771,374.511 L 357.803,374.48 L 357.833,374.447 L 357.86,374.412 L 357.883,374.374 L 357.903,374.335 L 357.92,374.294 L 357.933,374.252 L 357.943,374.208 L 357.948,374.165 L 357.95,374.12 L 357.435,374.12 Z" style="fill:#000000;fill-rule:evenodd;fill-opacity:1;stroke:#000000;stroke-width:0.0px;stroke-linecap:butt;stroke-linejoin:miter;stroke-opacity:1;"/>
<path class="atom-0" d="M 607.26 383.46 Q 608.506 383.46, 609.134 384.026 Q 609.762 384.582, 609.762 385.601 Q 609.762 386.61, 609.113 387.187 Q 608.475 387.753, 607.26 387.753 L 606.097 387.753 L 606.097 390.748 L 605.109 390.748 L 605.109 383.46 L 607.26 383.46 M 607.26 386.929 Q 607.971 386.929, 608.352 386.59 Q 608.732 386.25, 608.732 385.601 Q 608.732 384.953, 608.352 384.623 Q 607.981 384.284, 607.26 384.284 L 606.097 384.284 L 606.097 386.929 L 607.26 386.929 " fill="#FF7F00"/>
<path class="atom-0" d="M 610.373 384.774 L 611.657 384.774 L 611.657 383.422 L 612.228 383.422 L 612.228 384.774 L 613.546 384.774 L 613.546 385.263 L 612.228 385.263 L 612.228 386.622 L 611.657 386.622 L 611.657 385.263 L 610.373 385.263 L 610.373 384.774 " fill="#FF7F00"/>
<path d="M 615.605,384.016 L 615.603,383.972 L 615.597,383.928 L 615.588,383.885 L 615.575,383.842 L 615.558,383.801 L 615.538,383.762 L 615.514,383.724 L 615.488,383.689 L 615.458,383.656 L 615.426,383.626 L 615.391,383.598 L 615.354,383.574 L 615.315,383.553 L 615.274,383.535 L 615.232,383.521 L 615.189,383.511 L 615.145,383.504 L 615.101,383.502 L 615.057,383.502 L 615.013,383.507 L 614.969,383.516 L 614.927,383.528 L 614.886,383.544 L 614.846,383.563 L 614.808,383.586 L 614.772,383.612 L 614.738,383.641 L 614.707,383.672 L 614.679,383.706 L 614.654,383.743 L 614.632,383.781 L 614.614,383.822 L 614.599,383.863 L 614.587,383.906 L 614.58,383.95 L 614.576,383.994 L 614.576,384.038 L 614.58,384.082 L 614.587,384.126 L 614.599,384.169 L 614.614,384.21 L 614.632,384.251 L 614.654,384.289 L 614.679,384.326 L 614.707,384.36 L 614.738,384.392 L 614.772,384.42 L 614.808,384.446 L 614.846,384.469 L 614.886,384.488 L 614.927,384.504 L 614.969,384.516 L 615.013,384.525 L 615.057,384.53 L 615.101,384.531 L 615.145,384.528 L 615.189,384.521 L 615.232,384.511 L 615.274,384.497 L 615.315,384.479 L 615.354,384.458 L 615.391,384.434 L 615.426,384.406 L 615.458,384.376 L 615.488,384.343 L 615.514,384.308 L 615.538,384.27 L 615.558,384.231 L 615.575,384.19 L 615.588,384.148 L 615.597,384.104 L 615.603,384.06 L 615.605,384.016 L 615.09,384.016 Z" style="fill:#000000;fill-rule:evenodd;fill-opacity:1;stroke:#000000;stroke-width:0.0px;stroke-linecap:butt;stroke-linejoin:miter;stroke-opacity:1;"/>
<path d="M 615.605,390.192 L 615.603,390.148 L 615.597,390.104 L 615.588,390.061 L 615.575,390.019 L 615.558,389.978 L 615.538,389.938 L 615.514,389.901 L 615.488,389.865 L 615.458,389.832 L 615.426,389.802 L 615.391,389.775 L 615.354,389.75 L 615.315,389.729 L 615.274,389.712 L 615.232,389.698 L 615.189,389.687 L 615.145,389.681 L 615.101,389.678 L 615.057,389.679 L 615.013,389.683 L 614.969,389.692 L 614.927,389.704 L 614.886,389.72 L 614.846,389.739 L 614.808,389.762 L 614.772,389.788 L 614.738,389.817 L 614.707,389.849 L 614.679,389.883 L 614.654,389.919 L 614.632,389.958 L 614.614,389.998 L 614.599,390.04 L 614.587,390.082 L 614.58,390.126 L 614.576,390.17 L 614.576,390.215 L 614.58,390.259 L 614.587,390.302 L 614.599,390.345 L 614.614,390.387 L 614.632,390.427 L 614.654,390.466 L 614.679,390.502 L 614.707,390.536 L 614.738,390.568 L 614.772,390.597 L 614.808,390.623 L 614.846,390.645 L 614.886,390.665 L 614.927,390.68 L 614.969,390.693 L 615.013,390.701 L 615.057,390.706 L 615.101,390.707 L 615.145,390.704 L 615.189,390.697 L 615.232,390.687 L 615.274,390.673 L 615.315,390.655 L 615.354,390.634 L 615.391,390.61 L 615.426,390.583 L 615.458,390.552 L 615.488,390.519 L 615.514,390.484 L 615.538,390.447 L 615.558,390.407 L 615.575,390.366 L 615.588,390.324 L 615.597,390.281 L 615.603,390.237 L 615.605,390.192 L 615.09,390.192 Z" style="fill:#000000;fill-rule:evenodd;fill-opacity:1;stroke:#000000;stroke-width:0.0px;stroke-linecap:butt;stroke-linejoin:miter;stroke-opacity:1;"/>
<path d="M 615.605,386.075 L 615.603,386.031 L 615.597,385.987 L 615.588,385.943 L 615.575,385.901 L 615.558,385.86 L 615.538,385.821 L 615.514,385.783 L 615.488,385.748 L 615.458,385.715 L 615.426,385.685 L 615.391,385.657 L 615.354,385.633 L 615.315,385.612 L 615.274,385.594 L 615.232,385.58 L 615.189,385.57 L 615.145,385.563 L 615.101,385.56 L 615.057,385.561 L 615.013,385.566 L 614.969,385.574 L 614.927,385.587 L 614.886,385.603 L 614.846,385.622 L 614.808,385.645 L 614.772,385.67 L 614.738,385.699 L 614.707,385.731 L 614.679,385.765 L 614.654,385.802 L 614.632,385.84 L 614.614,385.88 L 614.599,385.922 L 614.587,385.965 L 614.58,386.009 L 614.576,386.053 L 614.576,386.097 L 614.58,386.141 L 614.587,386.185 L 614.599,386.228 L 614.614,386.269 L 614.632,386.309 L 614.654,386.348 L 614.679,386.384 L 614.707,386.419 L 614.738,386.45 L 614.772,386.479 L 614.808,386.505 L 614.846,386.528 L 614.886,386.547 L 614.927,386.563 L 614.969,386.575 L 615.013,386.584 L 615.057,386.588 L 615.101,386.589 L 615.145,386.587 L 615.189,386.58 L 615.232,386.57 L 615.274,386.555 L 615.315,386.538 L 615.354,386.517 L 615.391,386.493 L 615.426,386.465 L 615.458,386.435 L 615.488,386.402 L 615.514,386.367 L 615.538,386.329 L 615.558,386.29 L 615.575,386.249 L 615.588,386.206 L 615.597,386.163 L 615.603,386.119 L 615.605,386.075 L 615.09,386.075 Z" style="fill:#000000;fill-rule:evenodd;fill-opacity:1;stroke:#000000;stroke-width:0.0px;stroke-linecap:butt;stroke-linejoin:miter;stroke-opacity:1;"/>
<path d="M 615.605,388.134 L 615.603,388.089 L 615.597,388.045 L 615.588,388.002 L 615.575,387.96 L 615.558,387.919 L 615.538,387.879 L 615.514,387.842 L 615.488,387.807 L 615.458,387.774 L 615.426,387.743 L 615.391,387.716 L 615.354,387.692 L 615.315,387.671 L 615.274,387.653 L 615.232,387.639 L 615.189,387.629 L 615.145,387.622 L 615.101,387.619 L 615.057,387.62 L 615.013,387.625 L 614.969,387.633 L 614.927,387.645 L 614.886,387.661 L 614.846,387.681 L 614.808,387.703 L 614.772,387.729 L 614.738,387.758 L 614.707,387.79 L 614.679,387.824 L 614.654,387.86 L 614.632,387.899 L 614.614,387.939 L 614.599,387.981 L 614.587,388.024 L 614.58,388.067 L 614.576,388.111 L 614.576,388.156 L 614.58,388.2 L 614.587,388.243 L 614.599,388.286 L 614.614,388.328 L 614.632,388.368 L 614.654,388.407 L 614.679,388.443 L 614.707,388.477 L 614.738,388.509 L 614.772,388.538 L 614.808,388.564 L 614.846,388.587 L 614.886,388.606 L 614.927,388.622 L 614.969,388.634 L 615.013,388.642 L 615.057,388.647 L 615.101,388.648 L 615.145,388.645 L 615.189,388.639 L 615.232,388.628 L 615.274,388.614 L 615.315,388.597 L 615.354,388.576 L 615.391,388.551 L 615.426,388.524 L 615.458,388.494 L 615.488,388.461 L 615.514,388.425 L 615.538,388.388 L 615.558,388.348 L 615.575,388.307 L 615.588,388.265 L 615.597,388.222 L 615.603,388.178 L 615.605,388.134 L 615.09,388.134 Z" style="fill:#000000;fill-rule:evenodd;fill-opacity:1;stroke:#000000;stroke-width:0.0px;stroke-linecap:butt;stroke-linejoin:miter;stroke-opacity:1;"/>
<path class="bond-0 atom-0 atom-1" d="M 104.028,630.493 L 92.2418,637.298" style="fill:none;fill-rule:evenodd;stroke:#0000FF;stroke-width:2.0px;stroke-linecap:butt;stroke-linejoin:miter;stroke-opacity:1"/>
<path class="bond-1 atom-0 atom-2" d="M 110.843,630.493 L 126.413,639.483" style="fill:none;fill-rule:evenodd;stroke:#0000FF;stroke-width:2.0px;stroke-linecap:butt;stroke-linejoin:miter;stroke-opacity:1"/>
<path class="atom-0" d="M 105.824 624.882 L 108.213 628.742 Q 108.449 629.123, 108.83 629.813 Q 109.211 630.502, 109.232 630.544 L 109.232 624.882 L 110.199 624.882 L 110.199 632.17 L 109.201 632.17 L 106.638 627.95 Q 106.339 627.455, 106.02 626.889 Q 105.711 626.323, 105.619 626.148 L 105.619 632.17 L 104.672 632.17 L 104.672 624.882 L 105.824 624.882 " fill="#0000FF"/>
<path class="atom-0" d="M 110.539 626.087 L 113.032 626.087 L 113.032 626.631 L 110.539 626.631 L 110.539 626.087 " fill="#0000FF"/>
<path class="atom-1" d="M 72.3084 637.749 L 73.2966 637.749 L 73.2966 640.848 L 77.023 640.848 L 77.023 637.749 L 78.0112 637.749 L 78.0112 645.037 L 77.023 645.037 L 77.023 641.671 L 73.2966 641.671 L 73.2966 645.037 L 72.3084 645.037 L 72.3084 637.749 " fill="#0000FF"/>
<path class="atom-1" d="M 80.6065 646.147 Q 81.0752 646.283, 81.2994 646.589 Q 81.5304 646.888, 81.5304 647.363 Q 81.5304 647.771, 81.3266 648.09 Q 81.1228 648.403, 80.7491 648.579 Q 80.3755 648.749, 79.8863 648.749 Q 79.37 648.749, 78.9827 648.573 Q 78.6023 648.389, 78.2965 648.022 L 78.6838 647.628 Q 78.9827 647.954, 79.2341 648.083 Q 79.4855 648.206, 79.8863 648.206 Q 80.3211 648.206, 80.5861 647.975 Q 80.851 647.737, 80.851 647.357 Q 80.851 646.867, 80.5725 646.65 Q 80.3007 646.426, 79.7097 646.426 L 79.3632 646.426 L 79.3632 645.937 L 79.6689 645.937 Q 80.192 645.93, 80.4706 645.706 Q 80.7491 645.475, 80.7491 645.047 Q 80.7491 644.734, 80.5181 644.551 Q 80.2871 644.36, 79.8931 644.36 Q 79.4923 644.36, 79.2409 644.503 Q 78.9963 644.646, 78.8061 645.006 L 78.3373 644.754 Q 78.5071 644.354, 78.9148 644.089 Q 79.3224 643.817, 79.8931 643.817 Q 80.5997 643.817, 81.0141 644.15 Q 81.4285 644.483, 81.4285 645.047 Q 81.4285 645.434, 81.2179 645.712 Q 81.0073 645.991, 80.6065 646.147 " fill="#0000FF"/>
<path class="atom-1" d="M 83.5377 637.749 L 85.9259 641.609 Q 86.1626 641.99, 86.5435 642.68 Q 86.9244 643.37, 86.945 643.411 L 86.945 637.749 L 87.9126 637.749 L 87.9126 645.037 L 86.9141 645.037 L 84.3509 640.817 Q 84.0524 640.323, 83.7333 639.757 Q 83.4245 639.19, 83.3318 639.015 L 83.3318 645.037 L 82.3848 645.037 L 82.3848 637.749 L 83.5377 637.749 " fill="#0000FF"/>
<path class="atom-1" d="M 88.524 639.063 L 89.8081 639.063 L 89.8081 637.711 L 90.3788 637.711 L 90.3788 639.063 L 91.6968 639.063 L 91.6968 639.552 L 90.3788 639.552 L 90.3788 640.911 L 89.8081 640.911 L 89.8081 639.552 L 88.524 639.552 L 88.524 639.063 " fill="#0000FF"/>
<path class="atom-2" d="M 128.111 637.749 L 130.499 641.609 Q 130.736 641.99, 131.117 642.68 Q 131.498 643.37, 131.518 643.411 L 131.518 637.749 L 132.486 637.749 L 132.486 645.037 L 131.488 645.037 L 128.924 640.817 Q 128.626 640.323, 128.307 639.757 Q 127.998 639.19, 127.905 639.015 L 127.905 645.037 L 126.958 645.037 L 126.958 637.749 L 128.111 637.749 " fill="#0000FF"/>
<path class="atom-2" d="M 133.361 637.749 L 134.349 637.749 L 134.349 640.848 L 138.076 640.848 L 138.076 637.749 L 139.064 637.749 L 139.064 645.037 L 138.076 645.037 L 138.076 641.671 L 134.349 641.671 L 134.349 645.037 L 133.361 645.037 L 133.361 637.749 " fill="#0000FF"/>
<path class="atom-2" d="M 141.659 646.147 Q 142.128 646.283, 142.352 646.589 Q 142.583 646.888, 142.583 647.363 Q 142.583 647.771, 142.379 648.09 Q 142.175 648.403, 141.802 648.579 Q 141.428 648.749, 140.939 648.749 Q 140.423 648.749, 140.035 648.573 Q 139.655 648.389, 139.349 648.022 L 139.736 647.628 Q 140.035 647.954, 140.287 648.083 Q 140.538 648.206, 140.939 648.206 Q 141.374 648.206, 141.639 647.975 Q 141.904 647.737, 141.904 647.357 Q 141.904 646.867, 141.625 646.65 Q 141.353 646.426, 140.762 646.426 L 140.416 646.426 L 140.416 645.937 L 140.722 645.937 Q 141.245 645.93, 141.523 645.706 Q 141.802 645.475, 141.802 645.047 Q 141.802 644.734, 141.571 644.551 Q 141.34 644.36, 140.946 644.36 Q 140.545 644.36, 140.294 644.503 Q 140.049 644.646, 139.859 645.006 L 139.39 644.754 Q 139.56 644.354, 139.967 644.089 Q 140.375 643.817, 140.946 643.817 Q 141.652 643.817, 142.067 644.15 Q 142.481 644.483, 142.481 645.047 Q 142.481 645.434, 142.271 645.712 Q 142.06 645.991, 141.659 646.147 " fill="#0000FF"/>
<path class="atom-2" d="M 139.675 639.063 L 140.959 639.063 L 140.959 637.711 L 141.53 637.711 L 141.53 639.063 L 142.848 639.063 L 142.848 639.552 L 141.53 639.552 L 141.53 640.911 L 140.959 640.911 L 140.959 639.552 L 139.675 639.552 L 139.675 639.063 " fill="#0000FF"/>
<path class="bond-0 atom-0 atom-1" d="M 301.464,640.702 L 311.429,635.605" style="fill:none;fill-rule:evenodd;stroke:#000000;stroke-width:2.0px;stroke-linecap:butt;stroke-linejoin:miter;stroke-opacity:1"/>
<path class="bond-0 atom-0 atom-1" d="M 311.429,635.605 L 321.395,630.507" style="fill:none;fill-rule:evenodd;stroke:#CCCC00;stroke-width:2.0px;stroke-linecap:butt;stroke-linejoin:miter;stroke-opacity:1"/>
<path class="bond-1 atom-1 atom-2" d="M 327.355,630.911 L 335.008,635.864" style="fill:none;fill-rule:evenodd;stroke:#CCCC00;stroke-width:2.0px;stroke-linecap:butt;stroke-linejoin:miter;stroke-opacity:1"/>
<path class="bond-1 atom-1 atom-2" d="M 335.008,635.864 L 342.661,640.817" style="fill:none;fill-rule:evenodd;stroke:#0000FF;stroke-width:2.0px;stroke-linecap:butt;stroke-linejoin:miter;stroke-opacity:1"/>
<path class="bond-2 atom-2 atom-3" d="M 349.387,641.221 L 365.579,632.938" style="fill:none;fill-rule:evenodd;stroke:#0000FF;stroke-width:2.0px;stroke-linecap:butt;stroke-linejoin:miter;stroke-opacity:1"/>
<path class="bond-3 atom-3 atom-4" d="M 372.298,633.449 L 381.397,639.338" style="fill:none;fill-rule:evenodd;stroke:#0000FF;stroke-width:2.0px;stroke-linecap:butt;stroke-linejoin:miter;stroke-opacity:1"/>
<path class="bond-3 atom-3 atom-4" d="M 381.397,639.338 L 390.496,645.226" style="fill:none;fill-rule:evenodd;stroke:#000000;stroke-width:2.0px;stroke-linecap:butt;stroke-linejoin:miter;stroke-opacity:1"/>
<path class="bond-4 atom-4 atom-5" d="M 391.668,647.517 L 401.42,642.529" style="fill:none;fill-rule:evenodd;stroke:#000000;stroke-width:2.0px;stroke-linecap:butt;stroke-linejoin:miter;stroke-opacity:1"/>
<path class="bond-4 atom-4 atom-5" d="M 401.42,642.529 L 411.172,637.54" style="fill:none;fill-rule:evenodd;stroke:#0000FF;stroke-width:2.0px;stroke-linecap:butt;stroke-linejoin:miter;stroke-opacity:1"/>
<path class="bond-4 atom-4 atom-5" d="M 389.324,642.935 L 399.076,637.946" style="fill:none;fill-rule:evenodd;stroke:#000000;stroke-width:2.0px;stroke-linecap:butt;stroke-linejoin:miter;stroke-opacity:1"/>
<path class="bond-4 atom-4 atom-5" d="M 399.076,637.946 L 408.828,632.958" style="fill:none;fill-rule:evenodd;stroke:#0000FF;stroke-width:2.0px;stroke-linecap:butt;stroke-linejoin:miter;stroke-opacity:1"/>
<path class="atom-1" d="M 322.316 631.484 Q 322.398 631.515, 322.738 631.659 Q 323.078 631.803, 323.448 631.896 Q 323.829 631.978, 324.2 631.978 Q 324.89 631.978, 325.291 631.649 Q 325.692 631.309, 325.692 630.722 Q 325.692 630.321, 325.487 630.074 Q 325.291 629.827, 324.982 629.693 Q 324.673 629.559, 324.159 629.404 Q 323.51 629.209, 323.119 629.024 Q 322.738 628.838, 322.46 628.447 Q 322.193 628.056, 322.193 627.397 Q 322.193 626.481, 322.81 625.915 Q 323.438 625.349, 324.673 625.349 Q 325.517 625.349, 326.475 625.75 L 326.238 626.543 Q 325.363 626.183, 324.704 626.183 Q 323.994 626.183, 323.603 626.481 Q 323.212 626.769, 323.222 627.274 Q 323.222 627.665, 323.418 627.902 Q 323.623 628.138, 323.912 628.272 Q 324.21 628.406, 324.704 628.56 Q 325.363 628.766, 325.754 628.972 Q 326.145 629.178, 326.423 629.6 Q 326.712 630.012, 326.712 630.722 Q 326.712 631.731, 326.032 632.276 Q 325.363 632.812, 324.241 632.812 Q 323.593 632.812, 323.098 632.668 Q 322.615 632.534, 322.038 632.297 L 322.316 631.484 " fill="#CCCC00"/>
<path class="atom-2" d="M 344.369 639.32 L 346.757 643.18 Q 346.994 643.561, 347.375 644.251 Q 347.756 644.94, 347.776 644.982 L 347.776 639.32 L 348.744 639.32 L 348.744 646.608 L 347.745 646.608 L 345.182 642.388 Q 344.884 641.894, 344.565 641.327 Q 344.256 640.761, 344.163 640.586 L 344.163 646.608 L 343.216 646.608 L 343.216 639.32 L 344.369 639.32 " fill="#0000FF"/>
<path class="atom-2" d="M 343.129 647.337 L 344.117 647.337 L 344.117 650.435 L 347.843 650.435 L 347.843 647.337 L 348.831 647.337 L 348.831 654.625 L 347.843 654.625 L 347.843 651.259 L 344.117 651.259 L 344.117 654.625 L 343.129 654.625 L 343.129 647.337 " fill="#0000FF"/>
<path class="atom-3" d="M 367.28 627.6 L 369.668 631.461 Q 369.905 631.841, 370.286 632.531 Q 370.667 633.221, 370.687 633.262 L 370.687 627.6 L 371.655 627.6 L 371.655 634.888 L 370.656 634.888 L 368.093 630.668 Q 367.795 630.174, 367.476 629.608 Q 367.167 629.041, 367.074 628.866 L 367.074 634.888 L 366.127 634.888 L 366.127 627.6 L 367.28 627.6 " fill="#0000FF"/>
<path class="atom-3" d="M 366.04 619.584 L 367.028 619.584 L 367.028 622.682 L 370.754 622.682 L 370.754 619.584 L 371.742 619.584 L 371.742 626.872 L 370.754 626.872 L 370.754 623.505 L 367.028 623.505 L 367.028 626.872 L 366.04 626.872 L 366.04 619.584 " fill="#0000FF"/>
<path class="atom-3" d="M 372.096 626.616 Q 372.272 626.161, 372.693 625.909 Q 373.115 625.651, 373.699 625.651 Q 374.426 625.651, 374.834 626.045 Q 375.241 626.439, 375.241 627.139 Q 375.241 627.852, 374.711 628.518 Q 374.188 629.184, 373.101 629.972 L 375.323 629.972 L 375.323 630.516 L 372.082 630.516 L 372.082 630.06 Q 372.979 629.422, 373.509 628.946 Q 374.045 628.471, 374.304 628.043 Q 374.562 627.615, 374.562 627.173 Q 374.562 626.711, 374.331 626.453 Q 374.1 626.195, 373.699 626.195 Q 373.312 626.195, 373.054 626.351 Q 372.795 626.507, 372.612 626.854 L 372.096 626.616 " fill="#0000FF"/>
<path class="atom-3" d="M 372.354 620.897 L 373.638 620.897 L 373.638 619.545 L 374.209 619.545 L 374.209 620.897 L 375.527 620.897 L 375.527 621.386 L 374.209 621.386 L 374.209 622.745 L 373.638 622.745 L 373.638 621.386 L 372.354 621.386 L 372.354 620.897 " fill="#0000FF"/>
<path class="atom-5" d="M 411.796 629.862 L 414.184 633.722 Q 414.421 634.103, 414.802 634.793 Q 415.183 635.483, 415.203 635.524 L 415.203 629.862 L 416.171 629.862 L 416.171 637.15 L 415.172 637.15 L 412.609 632.93 Q 412.311 632.436, 411.992 631.87 Q 411.683 631.303, 411.59 631.128 L 411.59 637.15 L 410.643 637.15 L 410.643 629.862 L 411.796 629.862 " fill="#0000FF"/>
<path class="atom-5" d="M 417.046 629.862 L 418.034 629.862 L 418.034 632.961 L 421.76 632.961 L 421.76 629.862 L 422.749 629.862 L 422.749 637.15 L 421.76 637.15 L 421.76 633.784 L 418.034 633.784 L 418.034 637.15 L 417.046 637.15 L 417.046 629.862 " fill="#0000FF"/>
<path class="atom-5" d="M 423.102 636.895 Q 423.279 636.439, 423.7 636.188 Q 424.121 635.93, 424.705 635.93 Q 425.432 635.93, 425.84 636.324 Q 426.247 636.718, 426.247 637.418 Q 426.247 638.131, 425.718 638.797 Q 425.194 639.463, 424.107 640.251 L 426.329 640.251 L 426.329 640.794 L 423.088 640.794 L 423.088 640.339 Q 423.985 639.7, 424.515 639.225 Q 425.052 638.749, 425.31 638.321 Q 425.568 637.893, 425.568 637.452 Q 425.568 636.99, 425.337 636.732 Q 425.106 636.473, 424.705 636.473 Q 424.318 636.473, 424.06 636.63 Q 423.802 636.786, 423.618 637.132 L 423.102 636.895 " fill="#0000FF"/>
<path class="atom-5" d="M 423.36 631.176 L 424.644 631.176 L 424.644 629.824 L 425.215 629.824 L 425.215 631.176 L 426.533 631.176 L 426.533 631.665 L 425.215 631.665 L 425.215 633.024 L 424.644 633.024 L 424.644 631.665 L 423.36 631.665 L 423.36 631.176 " fill="#0000FF"/>
<path d="M 298.89,639.673 L 298.889,639.629 L 298.883,639.585 L 298.873,639.541 L 298.86,639.499 L 298.844,639.458 L 298.823,639.419 L 298.8,639.381 L 298.773,639.346 L 298.744,639.313 L 298.711,639.282 L 298.676,639.255 L 298.639,639.231 L 298.601,639.21 L 298.56,639.192 L 298.518,639.178 L 298.475,639.168 L 298.431,639.161 L 298.387,639.158 L 298.343,639.159 L 298.299,639.164 L 298.255,639.172 L 298.213,639.185 L 298.171,639.201 L 298.131,639.22 L 298.093,639.243 L 298.057,639.268 L 298.024,639.297 L 297.993,639.329 L 297.965,639.363 L 297.94,639.4 L 297.918,639.438 L 297.899,639.478 L 297.884,639.52 L 297.873,639.563 L 297.865,639.607 L 297.862,639.651 L 297.862,639.695 L 297.865,639.739 L 297.873,639.783 L 297.884,639.826 L 297.899,639.867 L 297.918,639.907 L 297.94,639.946 L 297.965,639.982 L 297.993,640.017 L 298.024,640.048 L 298.057,640.077 L 298.093,640.103 L 298.131,640.126 L 298.171,640.145 L 298.213,640.161 L 298.255,640.173 L 298.299,640.182 L 298.343,640.186 L 298.387,640.187 L 298.431,640.185 L 298.475,640.178 L 298.518,640.167 L 298.56,640.153 L 298.601,640.136 L 298.639,640.115 L 298.676,640.09 L 298.711,640.063 L 298.744,640.033 L 298.773,640 L 298.8,639.964 L 298.823,639.927 L 298.844,639.888 L 298.86,639.847 L 298.873,639.804 L 298.883,639.761 L 298.889,639.717 L 298.89,639.673 L 298.376,639.673 Z" style="fill:#000000;fill-rule:evenodd;fill-opacity:1;stroke:#000000;stroke-width:0.0px;stroke-linecap:butt;stroke-linejoin:miter;stroke-opacity:1;"/>
<path d="M 298.89,641.732 L 298.889,641.687 L 298.883,641.643 L 298.873,641.6 L 298.86,641.558 L 298.844,641.517 L 298.823,641.477 L 298.8,641.44 L 298.773,641.404 L 298.744,641.372 L 298.711,641.341 L 298.676,641.314 L 298.639,641.29 L 298.601,641.269 L 298.56,641.251 L 298.518,641.237 L 298.475,641.226 L 298.431,641.22 L 298.387,641.217 L 298.343,641.218 L 298.299,641.223 L 298.255,641.231 L 298.213,641.243 L 298.171,641.259 L 298.131,641.279 L 298.093,641.301 L 298.057,641.327 L 298.024,641.356 L 297.993,641.388 L 297.965,641.422 L 297.94,641.458 L 297.918,641.497 L 297.899,641.537 L 297.884,641.579 L 297.873,641.622 L 297.865,641.665 L 297.862,641.709 L 297.862,641.754 L 297.865,641.798 L 297.873,641.841 L 297.884,641.884 L 297.899,641.926 L 297.918,641.966 L 297.94,642.005 L 297.965,642.041 L 297.993,642.075 L 298.024,642.107 L 298.057,642.136 L 298.093,642.162 L 298.131,642.184 L 298.171,642.204 L 298.213,642.22 L 298.255,642.232 L 298.299,642.24 L 298.343,642.245 L 298.387,642.246 L 298.431,642.243 L 298.475,642.237 L 298.518,642.226 L 298.56,642.212 L 298.601,642.195 L 298.639,642.174 L 298.676,642.149 L 298.711,642.122 L 298.744,642.092 L 298.773,642.059 L 298.8,642.023 L 298.823,641.986 L 298.844,641.946 L 298.86,641.905 L 298.873,641.863 L 298.883,641.82 L 298.889,641.776 L 298.89,641.732 L 298.376,641.732 Z" style="fill:#000000;fill-rule:evenodd;fill-opacity:1;stroke:#000000;stroke-width:0.0px;stroke-linecap:butt;stroke-linejoin:miter;stroke-opacity:1;"/>
<path class="bond-0 atom-0 atom-1" d="M 660.427,635.031 L 652.414,639.13" style="fill:none;fill-rule:evenodd;stroke:#CCCC00;stroke-width:2.0px;stroke-linecap:butt;stroke-linejoin:miter;stroke-opacity:1"/>
<path class="bond-0 atom-0 atom-1" d="M 652.414,639.13 L 644.401,643.228" style="fill:none;fill-rule:evenodd;stroke:#FF0000;stroke-width:2.0px;stroke-linecap:butt;stroke-linejoin:miter;stroke-opacity:1"/>
<path class="bond-1 atom-1 atom-2" d="M 636.507,642.645 L 629.13,637.87" style="fill:none;fill-rule:evenodd;stroke:#FF0000;stroke-width:2.0px;stroke-linecap:butt;stroke-linejoin:miter;stroke-opacity:1"/>
<path class="bond-1 atom-1 atom-2" d="M 629.13,637.87 L 621.752,633.096" style="fill:none;fill-rule:evenodd;stroke:#CCCC00;stroke-width:2.0px;stroke-linecap:butt;stroke-linejoin:miter;stroke-opacity:1"/>
<path class="bond-2 atom-2 atom-3" d="M 615.911,632.769 L 607.388,637.128" style="fill:none;fill-rule:evenodd;stroke:#CCCC00;stroke-width:2.0px;stroke-linecap:butt;stroke-linejoin:miter;stroke-opacity:1"/>
<path class="bond-2 atom-2 atom-3" d="M 607.388,637.128 L 598.866,641.488" style="fill:none;fill-rule:evenodd;stroke:#FF7F00;stroke-width:2.0px;stroke-linecap:butt;stroke-linejoin:miter;stroke-opacity:1"/>
<path class="bond-3 atom-3 atom-4" d="M 593.01,641.042 L 578.654,628.687 L 575.858,633.008 Z" style="fill:#FF7F00;fill-rule:evenodd;fill-opacity:1;stroke:#FF7F00;stroke-width:2.0px;stroke-linecap:butt;stroke-linejoin:miter;stroke-opacity:1;"/>
<path class="bond-4 atom-4 atom-5" d="M 571.405,630.502 L 562.798,634.904" style="fill:none;fill-rule:evenodd;stroke:#FF7F00;stroke-width:2.0px;stroke-linecap:butt;stroke-linejoin:miter;stroke-opacity:1"/>
<path class="bond-4 atom-4 atom-5" d="M 562.798,634.904 L 554.191,639.307" style="fill:none;fill-rule:evenodd;stroke:#33CCCC;stroke-width:2.0px;stroke-linecap:butt;stroke-linejoin:miter;stroke-opacity:1"/>
<path class="atom-0" d="M 661.348 636.008 Q 661.431 636.039, 661.77 636.183 Q 662.11 636.327, 662.481 636.419 Q 662.861 636.502, 663.232 636.502 Q 663.922 636.502, 664.323 636.172 Q 664.725 635.833, 664.725 635.246 Q 664.725 634.844, 664.519 634.597 Q 664.323 634.35, 664.014 634.217 Q 663.706 634.083, 663.191 633.928 Q 662.542 633.733, 662.151 633.547 Q 661.77 633.362, 661.492 632.971 Q 661.225 632.58, 661.225 631.921 Q 661.225 631.005, 661.842 630.439 Q 662.47 629.873, 663.706 629.873 Q 664.55 629.873, 665.507 630.274 L 665.27 631.067 Q 664.395 630.706, 663.736 630.706 Q 663.026 630.706, 662.635 631.005 Q 662.244 631.293, 662.254 631.797 Q 662.254 632.189, 662.45 632.425 Q 662.656 632.662, 662.944 632.796 Q 663.242 632.93, 663.736 633.084 Q 664.395 633.29, 664.786 633.496 Q 665.178 633.702, 665.455 634.124 Q 665.744 634.536, 665.744 635.246 Q 665.744 636.255, 665.064 636.8 Q 664.395 637.336, 663.273 637.336 Q 662.625 637.336, 662.131 637.191 Q 661.647 637.058, 661.07 636.821 L 661.348 636.008 " fill="#CCCC00"/>
<path class="atom-0" d="M 666.355 631.078 L 667.639 631.078 L 667.639 629.726 L 668.21 629.726 L 668.21 631.078 L 669.528 631.078 L 669.528 631.567 L 668.21 631.567 L 668.21 632.926 L 667.639 632.926 L 667.639 631.567 L 666.355 631.567 L 666.355 631.078 " fill="#CCCC00"/>
<path class="atom-1" d="M 637.151 645.247 Q 637.151 643.497, 638.015 642.519 Q 638.88 641.541, 640.496 641.541 Q 642.112 641.541, 642.977 642.519 Q 643.841 643.497, 643.841 645.247 Q 643.841 647.017, 642.967 648.026 Q 642.092 649.024, 640.496 649.024 Q 638.89 649.024, 638.015 648.026 Q 637.151 647.027, 637.151 645.247 M 640.496 648.201 Q 641.608 648.201, 642.205 647.46 Q 642.812 646.708, 642.812 645.247 Q 642.812 643.816, 642.205 643.095 Q 641.608 642.364, 640.496 642.364 Q 639.384 642.364, 638.777 643.085 Q 638.18 643.805, 638.18 645.247 Q 638.18 646.719, 638.777 647.46 Q 639.384 648.201, 640.496 648.201 " fill="#FF0000"/>
<path class="atom-2" d="M 616.832 633.746 Q 616.915 633.777, 617.254 633.921 Q 617.594 634.065, 617.964 634.158 Q 618.345 634.24, 618.716 634.24 Q 619.406 634.24, 619.807 633.91 Q 620.209 633.571, 620.209 632.984 Q 620.209 632.583, 620.003 632.336 Q 619.807 632.088, 619.498 631.955 Q 619.189 631.821, 618.675 631.666 Q 618.026 631.471, 617.635 631.286 Q 617.254 631.1, 616.976 630.709 Q 616.709 630.318, 616.709 629.659 Q 616.709 628.743, 617.326 628.177 Q 617.954 627.611, 619.189 627.611 Q 620.034 627.611, 620.991 628.012 L 620.754 628.805 Q 619.879 628.444, 619.22 628.444 Q 618.51 628.444, 618.119 628.743 Q 617.728 629.031, 617.738 629.536 Q 617.738 629.927, 617.934 630.164 Q 618.139 630.4, 618.428 630.534 Q 618.726 630.668, 619.22 630.822 Q 619.879 631.028, 620.27 631.234 Q 620.661 631.44, 620.939 631.862 Q 621.228 632.274, 621.228 632.984 Q 621.228 633.993, 620.548 634.538 Q 619.879 635.074, 618.757 635.074 Q 618.109 635.074, 617.615 634.93 Q 617.131 634.796, 616.554 634.559 L 616.832 633.746 " fill="#CCCC00"/>
<path class="atom-3" d="M 595.805 639.32 Q 597.051 639.32, 597.678 639.886 Q 598.306 640.442, 598.306 641.461 Q 598.306 642.47, 597.658 643.046 Q 597.02 643.613, 595.805 643.613 L 594.642 643.613 L 594.642 646.608 L 593.654 646.608 L 593.654 639.32 L 595.805 639.32 M 595.805 642.789 Q 596.515 642.789, 596.896 642.449 Q 597.277 642.11, 597.277 641.461 Q 597.277 640.813, 596.896 640.483 Q 596.526 640.144, 595.805 640.144 L 594.642 640.144 L 594.642 642.789 L 595.805 642.789 " fill="#FF7F00"/>
<path class="atom-3" d="M 593.129 647.337 L 594.117 647.337 L 594.117 650.435 L 597.843 650.435 L 597.843 647.337 L 598.831 647.337 L 598.831 654.625 L 597.843 654.625 L 597.843 651.259 L 594.117 651.259 L 594.117 654.625 L 593.129 654.625 L 593.129 647.337 " fill="#FF7F00"/>
<path class="atom-4" d="M 574.2 625.338 Q 575.445 625.338, 576.073 625.905 Q 576.701 626.46, 576.701 627.48 Q 576.701 628.488, 576.053 629.065 Q 575.415 629.631, 574.2 629.631 L 573.037 629.631 L 573.037 632.626 L 572.048 632.626 L 572.048 625.338 L 574.2 625.338 M 574.2 628.807 Q 574.91 628.807, 575.291 628.468 Q 575.672 628.128, 575.672 627.48 Q 575.672 626.831, 575.291 626.502 Q 574.92 626.162, 574.2 626.162 L 573.037 626.162 L 573.037 628.807 L 574.2 628.807 " fill="#FF7F00"/>
<path class="atom-5" d="M 549.297 637.058 L 553.631 637.058 L 553.631 637.892 L 550.275 637.892 L 550.275 640.105 L 553.26 640.105 L 553.26 640.949 L 550.275 640.949 L 550.275 644.346 L 549.297 644.346 L 549.297 637.058 " fill="#33CCCC"/>
<path d="M 671.587,632.477 L 671.585,632.433 L 671.579,632.389 L 671.57,632.345 L 671.556,632.303 L 671.54,632.262 L 671.52,632.223 L 671.496,632.185 L 671.469,632.15 L 671.44,632.117 L 671.407,632.087 L 671.373,632.059 L 671.336,632.035 L 671.297,632.014 L 671.256,631.996 L 671.214,631.982 L 671.171,631.972 L 671.127,631.965 L 671.083,631.962 L 671.039,631.963 L 670.995,631.968 L 670.951,631.977 L 670.909,631.989 L 670.867,632.005 L 670.828,632.024 L 670.789,632.047 L 670.754,632.073 L 670.72,632.101 L 670.689,632.133 L 670.661,632.167 L 670.636,632.204 L 670.614,632.242 L 670.595,632.282 L 670.58,632.324 L 670.569,632.367 L 670.562,632.411 L 670.558,632.455 L 670.558,632.499 L 670.562,632.543 L 670.569,632.587 L 670.58,632.63 L 670.595,632.671 L 670.614,632.712 L 670.636,632.75 L 670.661,632.787 L 670.689,632.821 L 670.72,632.852 L 670.754,632.881 L 670.789,632.907 L 670.828,632.93 L 670.867,632.949 L 670.909,632.965 L 670.951,632.977 L 670.995,632.986 L 671.039,632.991 L 671.083,632.991 L 671.127,632.989 L 671.171,632.982 L 671.214,632.972 L 671.256,632.958 L 671.297,632.94 L 671.336,632.919 L 671.373,632.895 L 671.407,632.867 L 671.44,632.837 L 671.469,632.804 L 671.496,632.769 L 671.52,632.731 L 671.54,632.692 L 671.556,632.651 L 671.57,632.608 L 671.579,632.565 L 671.585,632.521 L 671.587,632.477 L 671.072,632.477 Z" style="fill:#000000;fill-rule:evenodd;fill-opacity:1;stroke:#000000;stroke-width:0.0px;stroke-linecap:butt;stroke-linejoin:miter;stroke-opacity:1;"/>
<path d="M 671.587,634.536 L 671.585,634.491 L 671.579,634.447 L 671.57,634.404 L 671.556,634.362 L 671.54,634.321 L 671.52,634.282 L 671.496,634.244 L 671.469,634.209 L 671.44,634.176 L 671.407,634.145 L 671.373,634.118 L 671.336,634.094 L 671.297,634.073 L 671.256,634.055 L 671.214,634.041 L 671.171,634.031 L 671.127,634.024 L 671.083,634.021 L 671.039,634.022 L 670.995,634.027 L 670.951,634.035 L 670.909,634.048 L 670.867,634.063 L 670.828,634.083 L 670.789,634.105 L 670.754,634.131 L 670.72,634.16 L 670.689,634.192 L 670.661,634.226 L 670.636,634.262 L 670.614,634.301 L 670.595,634.341 L 670.58,634.383 L 670.569,634.426 L 670.562,634.469 L 670.558,634.514 L 670.558,634.558 L 670.562,634.602 L 670.569,634.646 L 670.58,634.688 L 670.595,634.73 L 670.614,634.77 L 670.636,634.809 L 670.661,634.845 L 670.689,634.879 L 670.72,634.911 L 670.754,634.94 L 670.789,634.966 L 670.828,634.989 L 670.867,635.008 L 670.909,635.024 L 670.951,635.036 L 670.995,635.045 L 671.039,635.049 L 671.083,635.05 L 671.127,635.047 L 671.171,635.041 L 671.214,635.03 L 671.256,635.016 L 671.297,634.999 L 671.336,634.978 L 671.373,634.953 L 671.407,634.926 L 671.44,634.896 L 671.469,634.863 L 671.496,634.827 L 671.52,634.79 L 671.54,634.75 L 671.556,634.709 L 671.57,634.667 L 671.579,634.624 L 671.585,634.58 L 671.587,634.536 L 671.072,634.536 Z" style="fill:#000000;fill-rule:evenodd;fill-opacity:1;stroke:#000000;stroke-width:0.0px;stroke-linecap:butt;stroke-linejoin:miter;stroke-opacity:1;"/>
<path d="M 574.89,624.566 L 574.888,624.522 L 574.882,624.478 L 574.873,624.435 L 574.859,624.393 L 574.843,624.352 L 574.822,624.312 L 574.799,624.275 L 574.772,624.239 L 574.743,624.206 L 574.71,624.176 L 574.676,624.149 L 574.639,624.124 L 574.6,624.103 L 574.559,624.086 L 574.517,624.072 L 574.474,624.061 L 574.43,624.055 L 574.386,624.052 L 574.342,624.053 L 574.298,624.058 L 574.254,624.066 L 574.212,624.078 L 574.17,624.094 L 574.13,624.113 L 574.092,624.136 L 574.056,624.162 L 574.023,624.191 L 573.992,624.223 L 573.964,624.257 L 573.939,624.293 L 573.917,624.332 L 573.898,624.372 L 573.883,624.414 L 573.872,624.457 L 573.864,624.5 L 573.861,624.544 L 573.861,624.589 L 573.864,624.633 L 573.872,624.676 L 573.883,624.719 L 573.898,624.761 L 573.917,624.801 L 573.939,624.84 L 573.964,624.876 L 573.992,624.91 L 574.023,624.942 L 574.056,624.971 L 574.092,624.997 L 574.13,625.019 L 574.17,625.039 L 574.212,625.055 L 574.254,625.067 L 574.298,625.075 L 574.342,625.08 L 574.386,625.081 L 574.43,625.078 L 574.474,625.071 L 574.517,625.061 L 574.559,625.047 L 574.6,625.029 L 574.639,625.008 L 574.676,624.984 L 574.71,624.957 L 574.743,624.926 L 574.772,624.893 L 574.799,624.858 L 574.822,624.821 L 574.843,624.781 L 574.859,624.74 L 574.873,624.698 L 574.882,624.655 L 574.888,624.611 L 574.89,624.566 L 574.375,624.566 Z" style="fill:#000000;fill-rule:evenodd;fill-opacity:1;stroke:#000000;stroke-width:0.0px;stroke-linecap:butt;stroke-linejoin:miter;stroke-opacity:1;"/>
</svg>